M48
;Layer_Color=9474304
;FILE_FORMAT=2:5
INCH,LZ
;TYPE=PLATED
T1F00S00C0.01181
T2F00S00C0.01968
T3F00S00C0.02362
T4F00S00C0.03000
T5F00S00C0.03150
T6F00S00C0.03543
T7F00S00C0.03937
T8F00S00C0.04331
;TYPE=NON_PLATED
T9F00S00C0.04331
T10F00S00C0.07874
%
T01
X0000126Y0052974
X-00006Y00879
X-00055Y00909
X0008699Y0091101
X00176Y00886
X00215Y00794
X00202Y00633
X0031Y00714
X00332Y00877
X00394Y00876
X00626Y00916
X00642Y00714
X00661Y00402
X0059776Y0041476
X01685Y0047
X01676Y00281
X01684Y0018
X0162Y0019
X01526Y0016
X01678Y-00086
X01648Y00648
X01706Y00643
X01765Y00576
X01936Y00563
X02034Y00564
X02015Y00588
X02016Y00532
X02046Y00522
X02084Y00536
X0212024Y0048984
X0215428Y0042428
X02144Y00392
X02153Y00317
X02134Y00293
X02141Y00262
X02229Y00172
X02321Y00217
X02389Y00269
X02373Y00347
X0232375Y0034275
X0234Y00417
X02385Y00445
X02406Y00467
X0244Y00476
X02367Y00481
X02477Y00539
X02541Y00538
X0244728Y0058228
X02632Y00587
X02622Y00452
X02675Y00471
X02742
X02675Y00378
X02677Y00347
X02591Y00348
X02487Y00392
X02454Y00306
X02418Y00094
X02422Y00055
X02471Y-00048
X025255Y00104
X0272828Y0016828
X02796Y00173
X02811Y0021
X02892Y00194
X0294335Y002053
X02943Y00123
X02871Y00143
X02834Y00135
X02796Y00096
X02806Y-00068
X02675Y-00069
X02944Y-00056
X03042Y-00032
X03068Y00007
X0309889Y-0002289
X031205Y000875
X03042Y00068
X03107Y00178
X03158Y00221
X03187Y00235
X03183Y0027097
Y00313
X03157Y00329
X03184Y00355
X03226Y00407
X02947Y00689
X02737Y00255
X02273Y00066
X02122Y00063
X02133Y00033
X02132Y-00009
X02183Y-00071
X02097Y00128
X02067Y0012883
X0191284Y0009916
X0189316Y0006884
X01891Y-00006
X01895Y-0006
X0177865Y0005135
X01778Y00086
X01716Y00021
X0178Y00793
X01762Y00826
X0188667Y0087726
X01914Y00891
X02136Y00894
Y00797
X02153Y00732
X02251Y00844
X02484Y00916
X03417Y00786
X03619Y00728
X03838Y00646
X0410039Y0064173
X0409842Y0021752
X0400512Y0026478
X039813Y0025394
X0396063Y0026772
X03929Y00249
X03924Y00292
X03899Y00293
X0383582Y0028938
X0380913Y00292
X03838Y00252
X03767Y00243
X03789Y-00021
X03916Y-00025
X039958Y-0006521
X03664Y-00054
X03623Y-00027
X03592Y-00061
X03523Y00195
X03428Y00215
X03279Y00213
X03297Y0024
X0329103Y0027097
X03289Y00304
X03311Y00325
X03287Y00346
X03304Y00389
X0440945Y00783
Y0082677
Y0086614
X04365Y00866
X0452756Y0086614
Y0082677
Y007874
X0428642Y0168799
X0426083Y016939
X04258Y01719
X04011Y01929
Y01958
X03097Y02001
Y01901
X0310642Y0107042
Y0097142
X0304539Y01022
X0279481Y0093619
X0272081Y0093381
X0264481Y0093781
X02519Y00956
X02484Y00999
X02464Y01078
X02511Y01075
Y01187
X02559Y01233
X02617Y01238
X02648Y01248
X02693Y01228
X02679Y01174
X02684Y01121
X02789Y0112
X0241Y01111
X0233268Y0115157
X0226Y0111
X02195
X0214Y01135
X02115Y01145
X02075Y01135
X020719Y010069
X021Y01025
X0203Y0103
X0197099Y0107301
X01972Y01104
X02184Y01003
X0231212Y0097612
X02422Y01221
X022441Y013189
X0222441Y0129921
X0218504
X0220472Y013189
X0216535
X02166Y01361
X02249Y01401
X02173Y01555
X0230315Y0165354
X02561Y01554
X0257999Y0150399
X025805Y013695
X0260819Y0134881
X02629Y01372
X00375Y01355
X00334Y0139
Y01419
X00333Y01458
X00331Y0149
X00189Y0147
X00259Y01198
X00392Y01132
X00467Y00972
X0035006Y0173231
X0031527
X00333Y01756
X0031069Y0177169
X00345Y01782
X0034Y02178
X0031496Y0218504
X003035Y021595
X0037402Y02178
X00064Y0192913
Y0189
X00043Y0191
X00082Y0166
X00106Y01677
X00128Y0166
X0001Y01545
X-0007027Y0154736
X-0027559Y0165541
X-002334Y017126
X-0023622Y0181102
X-0020974Y01266
X-0006484Y0118499
X00087Y01323
T02
X02199Y00218
X02249
Y00268
X02199
Y00318
X02249
Y00368
X02199
Y00418
X02249
T03
X04013Y01182
X0380421Y0139079
X0381201Y0150591
Y0180118
X03479Y0190272
Y02198
X02506Y01273
X02105Y01233
T04
X007913Y-0003921
Y0005921
X007923Y0022779
Y0032621
X007913Y0049479
Y0059321
X007923Y0076279
Y0086121
X015797
Y0076279
X015787Y0059321
Y0049479
X015797Y0032621
Y0022779
X015787Y0005921
Y-0003921
T05
X03867Y00896
X0396543
X0505002Y0046498
X04186Y0104779
Y0114621
X0379942Y01097
X03701
X0358721Y0094
X0348879
X0334542Y01044
X03247
X0256643Y01675
X0236958
X02721Y0192058
Y0211742
T06
X02373Y00024
X02473
X02573
Y00124
X02473
X02373
X0510363Y0057126
X0518237
Y0065
Y0072874
X0510363
Y0065
Y0080748
Y0088622
X0518237
Y0080748
Y0096496
Y010437
X0510363
Y0096496
Y0112244
X0518237
T07
X-0025591Y0041339
Y0051339
Y0061339
Y0071339
Y0081339
X-001559
Y0071339
Y0061339
Y0051339
Y0041339
Y0091339
X-0025591
X0480499Y00897
Y00797
Y00697
Y00597
X0490499
Y00697
Y00797
Y00897
Y00997
Y01097
Y01197
X0480499
Y01097
Y00997
X-001559Y0101339
X-0025591
T08
X03771Y00357
Y00457
Y00557
X03918Y00558
Y00458
Y00358
X05019Y01395
X05119
X04Y02163
X036
X03353
X02953
T09
X05019Y01495
X05119
T10
X0038138Y0014173
X0370079
Y0199423
X0038138
M30
