G04 Layer_Color=32896*
%FSLAX25Y25*%
%MOIN*%
G70*
G01*
G75*
%ADD59C,0.01000*%
%ADD103C,0.00787*%
%ADD104C,0.00984*%
D59*
X181102Y163386D02*
G03*
X181102Y163386I-59055J0D01*
G01*
X325427Y168699D02*
G03*
X325510Y169051I787J0D01*
G01*
X325424Y176589D02*
X325650Y176815D01*
Y178159D01*
X325757Y174590D02*
X326350Y175182D01*
Y178704D01*
X324612Y181461D02*
X325150Y181998D01*
Y183660D01*
X325232Y177742D02*
X325650Y178159D01*
Y183660D01*
X326350Y175884D02*
X326810Y175423D01*
X326350Y175884D02*
Y183660D01*
X327150Y177691D02*
X327183Y177658D01*
X327150Y177691D02*
Y183660D01*
X324246Y183660D02*
X324246Y183660D01*
X328183D01*
X324246Y183660D02*
X326214Y171848D01*
X328183Y183660D01*
X310466Y165943D02*
X341962D01*
X310466D02*
X326214Y189565D01*
X341962Y165943D01*
X306529Y163974D02*
X345899D01*
X306529D02*
X326214Y193502D01*
X345899Y163974D01*
X198450Y43550D02*
X200449D01*
X199450D01*
Y37552D01*
X198450Y38552D01*
X154400Y164798D02*
X150401D01*
Y163798D01*
X154400Y159800D01*
Y158800D01*
X144403Y164798D02*
X146403Y163798D01*
X148402Y161799D01*
Y159800D01*
X147402Y158800D01*
X145403D01*
X144403Y159800D01*
Y160799D01*
X145403Y161799D01*
X148402D01*
X142404Y163798D02*
X141404Y164798D01*
X139405D01*
X138405Y163798D01*
Y159800D01*
X139405Y158800D01*
X141404D01*
X142404Y159800D01*
Y163798D01*
X136406D02*
X135406Y164798D01*
X133407D01*
X132407Y163798D01*
Y162799D01*
X133407Y161799D01*
X134406D01*
X133407D01*
X132407Y160799D01*
Y159800D01*
X133407Y158800D01*
X135406D01*
X136406Y159800D01*
X130408Y163798D02*
X129408Y164798D01*
X127409D01*
X126409Y163798D01*
Y159800D01*
X127409Y158800D01*
X129408D01*
X130408Y159800D01*
Y163798D01*
X124410D02*
X123410Y164798D01*
X121411D01*
X120411Y163798D01*
Y162799D01*
X121411Y161799D01*
X120411Y160799D01*
Y159800D01*
X121411Y158800D01*
X123410D01*
X124410Y159800D01*
Y160799D01*
X123410Y161799D01*
X124410Y162799D01*
Y163798D01*
X123410Y161799D02*
X121411D01*
X118412Y158800D02*
X116412D01*
X117412D01*
Y164798D01*
X118412Y163798D01*
X113413D02*
X112414Y164798D01*
X110414D01*
X109415Y163798D01*
Y159800D01*
X110414Y158800D01*
X112414D01*
X113413Y159800D01*
Y163798D01*
X107415Y158800D02*
X105416D01*
X106415D01*
Y164798D01*
X107415Y163798D01*
X102417Y158800D02*
X100417D01*
X101417D01*
Y164798D01*
X102417Y163798D01*
X97418D02*
X96419Y164798D01*
X94419D01*
X93420Y163798D01*
Y159800D01*
X94419Y158800D01*
X96419D01*
X97418Y159800D01*
Y163798D01*
X91420D02*
X90421Y164798D01*
X88421D01*
X87422Y163798D01*
Y162799D01*
X88421Y161799D01*
X89421D01*
X88421D01*
X87422Y160799D01*
Y159800D01*
X88421Y158800D01*
X90421D01*
X91420Y159800D01*
X355742Y148743D02*
Y143412D01*
X353076Y140746D01*
X350410Y143412D01*
Y148743D01*
X343746D02*
X346411D01*
X347744Y147411D01*
Y142079D01*
X346411Y140746D01*
X343746D01*
X342413Y142079D01*
Y147411D01*
X343746Y148743D01*
X339747D02*
Y140746D01*
X334415D01*
X331750Y148743D02*
X326418D01*
X329084D01*
Y140746D01*
X323752D02*
Y146078D01*
X321086Y148743D01*
X318420Y146078D01*
Y140746D01*
Y144745D01*
X323752D01*
X310423Y147411D02*
X311756Y148743D01*
X314422D01*
X315755Y147411D01*
Y142079D01*
X314422Y140746D01*
X311756D01*
X310423Y142079D01*
Y144745D01*
X313089D01*
X302426Y148743D02*
X307757D01*
Y140746D01*
X302426D01*
X307757Y144745D02*
X305091D01*
X341962Y160555D02*
Y152557D01*
Y156556D01*
X336631D01*
Y160555D01*
Y152557D01*
X333965Y160555D02*
X331299D01*
X332632D01*
Y152557D01*
X333965D01*
X331299D01*
X321969Y159222D02*
X323302Y160555D01*
X325967D01*
X327300Y159222D01*
Y153890D01*
X325967Y152557D01*
X323302D01*
X321969Y153890D01*
Y156556D01*
X324634D01*
X319303Y160555D02*
Y152557D01*
Y156556D01*
X313971D01*
Y160555D01*
Y152557D01*
D103*
X406299Y22539D02*
X440158D01*
X406299Y39862D02*
X440158D01*
X406299Y22539D02*
Y39862D01*
X440158Y22539D02*
Y39862D01*
X439862Y44390D02*
Y61713D01*
X406004Y44390D02*
Y61713D01*
X439862D01*
X406004Y44390D02*
X439862D01*
X408304Y136039D02*
Y153361D01*
X421296Y136039D02*
Y153361D01*
X391143Y170804D02*
X408466D01*
X391143Y183796D02*
X408466D01*
X414862Y82973D02*
X432185D01*
X414862Y69980D02*
X432185D01*
X205791Y45481D02*
X217209D01*
X205791Y43119D02*
Y45481D01*
Y43119D02*
X217209D01*
Y45481D01*
D104*
X204906Y49812D02*
G03*
X204906Y49812I-492J0D01*
G01*
M02*
