G04 Layer_Physical_Order=1*
G04 Layer_Color=255*
%FSLAX25Y25*%
%MOIN*%
G70*
G01*
G75*
%ADD10R,0.02441X0.02284*%
%ADD11R,0.02284X0.02441*%
%ADD12R,0.05118X0.07874*%
%ADD13R,0.05118X0.05118*%
%ADD14R,0.03740X0.03740*%
%ADD15R,0.15748X0.11811*%
%ADD16R,0.04134X0.02559*%
%ADD17R,0.03543X0.03937*%
%ADD18R,0.03937X0.03543*%
%ADD19R,0.02441X0.02441*%
%ADD20R,0.04528X0.07087*%
%ADD21R,0.07087X0.04528*%
%ADD22R,0.04016X0.03150*%
%ADD23R,0.03740X0.03937*%
%ADD24R,0.04134X0.05512*%
%ADD25R,0.08661X0.06102*%
%ADD26R,0.27756X0.27756*%
%ADD27O,0.03150X0.00906*%
%ADD28O,0.00906X0.03150*%
%ADD29R,0.06102X0.02362*%
%ADD30R,0.05905X0.08071*%
%ADD31R,0.02441X0.02441*%
%ADD32R,0.12402X0.06299*%
%ADD33O,0.08000X0.02400*%
G04:AMPARAMS|DCode=34|XSize=157.48mil|YSize=118.11mil|CornerRadius=0mil|HoleSize=0mil|Usage=FLASHONLY|Rotation=135.000|XOffset=0mil|YOffset=0mil|HoleType=Round|Shape=Rectangle|*
%AMROTATEDRECTD34*
4,1,4,0.09744,-0.01392,0.01392,-0.09744,-0.09744,0.01392,-0.01392,0.09744,0.09744,-0.01392,0.0*
%
%ADD34ROTATEDRECTD34*%

%ADD35R,0.05905X0.13780*%
%ADD36R,0.03937X0.03740*%
%ADD37R,0.01968X0.03543*%
%ADD38R,0.02362X0.06102*%
%ADD39R,0.04134X0.02362*%
%ADD40R,0.02441X0.02362*%
%ADD41R,0.01772X0.05512*%
%ADD42R,0.07874X0.07283*%
%ADD43R,0.03150X0.04016*%
%ADD44O,0.02400X0.08000*%
%ADD45R,0.10827X0.05512*%
%ADD46R,0.05118X0.13780*%
%ADD47R,0.13780X0.21260*%
%ADD48R,0.05512X0.04134*%
%ADD49R,0.02559X0.04134*%
%ADD50R,0.06693X0.09449*%
%ADD51R,0.08465X0.20276*%
%ADD52O,0.03937X0.01181*%
%ADD53R,0.03937X0.01181*%
%ADD54R,0.03543X0.01968*%
%ADD55R,0.01968X0.02953*%
%ADD56R,0.03543X0.01575*%
%ADD57R,0.07087X0.04528*%
%ADD58C,0.02000*%
%ADD59C,0.01000*%
%ADD60C,0.00600*%
%ADD61C,0.00800*%
%ADD62C,0.03000*%
%ADD63R,0.02854X0.02165*%
%ADD64R,0.05020X0.05315*%
%ADD65R,0.01700X0.02000*%
%ADD66R,0.01600X0.01400*%
%ADD67R,0.02500X0.02100*%
%ADD68R,0.04500X0.12600*%
%ADD69R,0.05442X0.03291*%
%ADD70R,0.04263X0.07682*%
%ADD71R,0.07874X0.07874*%
%ADD72R,0.08611X0.05905*%
%ADD73R,0.01561X0.01600*%
%ADD74R,0.02200X0.05300*%
%ADD75R,0.04579X0.04974*%
%ADD76R,0.04700X0.03400*%
%ADD77O,0.05905X0.04724*%
%ADD78C,0.06299*%
%ADD79C,0.03937*%
%ADD80C,0.07087*%
%ADD81C,0.05905*%
%ADD82R,0.05905X0.05905*%
%ADD83C,0.05512*%
%ADD84C,0.05118*%
%ADD85C,0.06000*%
%ADD86O,0.07874X0.06299*%
G04:AMPARAMS|DCode=87|XSize=62.99mil|YSize=78.74mil|CornerRadius=15.75mil|HoleSize=0mil|Usage=FLASHONLY|Rotation=90.000|XOffset=0mil|YOffset=0mil|HoleType=Round|Shape=RoundedRectangle|*
%AMROUNDEDRECTD87*
21,1,0.06299,0.04724,0,0,90.0*
21,1,0.03150,0.07874,0,0,90.0*
1,1,0.03150,0.02362,0.01575*
1,1,0.03150,0.02362,-0.01575*
1,1,0.03150,-0.02362,-0.01575*
1,1,0.03150,-0.02362,0.01575*
%
%ADD87ROUNDEDRECTD87*%
%ADD88R,0.05905X0.05905*%
%ADD89C,0.03150*%
%ADD90C,0.15748*%
%ADD91C,0.02362*%
G36*
X217783Y109283D02*
X218571Y108757D01*
X219500Y108572D01*
X220207Y108713D01*
X220411Y108546D01*
X220582Y107687D01*
X221068Y106960D01*
X222357Y105671D01*
Y99775D01*
X218900D01*
Y96511D01*
X217900D01*
Y99775D01*
X215031D01*
Y107824D01*
X216576Y109369D01*
X217726D01*
X217783Y109283D01*
D02*
G37*
G36*
X242446Y112450D02*
X247490D01*
Y110405D01*
X247103Y110088D01*
X246400Y110228D01*
X245472Y110043D01*
X231003D01*
X230812Y110505D01*
X231153Y110846D01*
X231507Y111376D01*
X231631Y112000D01*
Y115833D01*
X234745D01*
Y112450D01*
X241446D01*
Y116600D01*
X242446D01*
Y112450D01*
D02*
G37*
G36*
X207850Y141032D02*
X210221D01*
Y141032D01*
X210380D01*
X210579Y140831D01*
Y140831D01*
X211080D01*
Y136909D01*
X211280D01*
Y136050D01*
X215721D01*
Y136909D01*
X215920D01*
Y137793D01*
X216424Y137893D01*
X216953Y138247D01*
X217745Y139038D01*
X218074Y139005D01*
X218288Y138553D01*
X218110Y138287D01*
X218086Y138167D01*
X220987D01*
Y137167D01*
X218086D01*
X218110Y137046D01*
X218462Y136520D01*
Y136314D01*
X218110Y135787D01*
X218086Y135667D01*
X223887D01*
X223863Y135787D01*
X223600Y136180D01*
X223809Y136635D01*
X224065Y136665D01*
X226169Y134732D01*
Y123700D01*
X226293Y123076D01*
X226646Y122547D01*
X226840Y122353D01*
Y120950D01*
X215253D01*
Y120572D01*
X214792Y120381D01*
X213327Y121845D01*
X213587Y122473D01*
X213696Y123300D01*
X213587Y124127D01*
X213268Y124898D01*
X212760Y125560D01*
X212743Y125573D01*
Y128000D01*
X212572Y128858D01*
X212086Y129586D01*
X204743Y136929D01*
Y141032D01*
X206850D01*
Y144000D01*
X207850D01*
Y141032D01*
D02*
G37*
G36*
X207792Y180120D02*
X207565Y179674D01*
X207200Y179747D01*
X206264Y179561D01*
X205470Y179030D01*
X204950Y178252D01*
X204450D01*
X203930Y179030D01*
X203136Y179561D01*
X202200Y179747D01*
X201264Y179561D01*
X200470Y179030D01*
X199939Y178236D01*
X199848Y177778D01*
X199348D01*
X199272Y178158D01*
X198786Y178886D01*
X198058Y179372D01*
X197700Y179444D01*
Y174500D01*
X197200D01*
Y174000D01*
X194957D01*
Y171700D01*
X195128Y170842D01*
X195614Y170114D01*
X195714Y170047D01*
X195569Y169569D01*
X195350D01*
Y166600D01*
Y163631D01*
X195931D01*
Y163343D01*
X195931D01*
Y159300D01*
X202458D01*
Y161466D01*
X202920Y161657D01*
X204235Y160343D01*
Y158800D01*
X204406Y157942D01*
X204892Y157214D01*
X205620Y156728D01*
X206302Y156592D01*
X206447Y156114D01*
X205764Y155431D01*
X205278Y154703D01*
X205107Y153845D01*
Y153168D01*
X204379D01*
Y152243D01*
X204000D01*
X203142Y152072D01*
X202414Y151586D01*
X200914Y150086D01*
X200428Y149358D01*
X200257Y148500D01*
Y136000D01*
X200428Y135142D01*
X200914Y134414D01*
X208257Y127071D01*
Y125573D01*
X208240Y125560D01*
X207732Y124898D01*
X207413Y124127D01*
X207304Y123300D01*
X207413Y122473D01*
X207732Y121702D01*
X208240Y121040D01*
X208368Y120942D01*
X208428Y120642D01*
X208914Y119914D01*
X213814Y115014D01*
X214542Y114528D01*
X215253Y114386D01*
Y112492D01*
X214746Y112153D01*
X212964Y110371D01*
X212502Y110562D01*
Y112851D01*
X207671D01*
Y108800D01*
Y104749D01*
X211769D01*
Y99951D01*
X207671D01*
Y95900D01*
X206671D01*
Y99951D01*
X201840D01*
Y95757D01*
X201382Y95556D01*
X196560Y99986D01*
Y100151D01*
X196381D01*
X192891Y103357D01*
X192101Y104083D01*
X192283Y104549D01*
X196560D01*
Y104586D01*
X196946Y104903D01*
X197099Y104873D01*
X198028Y105058D01*
X198245Y105202D01*
X198600D01*
X199068Y105296D01*
X199465Y105561D01*
X199730Y105958D01*
X199823Y106426D01*
Y111400D01*
X199730Y111868D01*
X199465Y112265D01*
X199068Y112530D01*
X198600Y112624D01*
X198158D01*
X198129Y112643D01*
X197200Y112828D01*
X196904Y112769D01*
X196560Y113051D01*
Y113051D01*
X195843D01*
Y115500D01*
X195843Y115500D01*
X195843Y115500D01*
Y115500D01*
X195843D01*
X195843Y115500D01*
X195672Y116358D01*
X195186Y117086D01*
X193552Y118720D01*
X198041Y123208D01*
X189496Y131753D01*
Y140786D01*
Y171466D01*
X189994Y171515D01*
X190128Y170842D01*
X190614Y170114D01*
X191342Y169628D01*
X191980Y169501D01*
Y167100D01*
X194350D01*
Y169569D01*
X193831D01*
X193686Y170047D01*
X193786Y170114D01*
X194272Y170842D01*
X194443Y171700D01*
Y174000D01*
X192200D01*
Y174500D01*
X191700D01*
Y179444D01*
X191502Y179404D01*
X191276Y179850D01*
X192891Y181334D01*
X206471D01*
X207792Y180120D01*
D02*
G37*
G36*
X246400Y105372D02*
X247103Y105512D01*
X247490Y105195D01*
Y102823D01*
X247606Y102238D01*
X247937Y101741D01*
X249861Y99818D01*
X249670Y99356D01*
X248900D01*
Y95600D01*
X248400D01*
Y95100D01*
X245333D01*
Y94000D01*
X244580D01*
Y99556D01*
X238047D01*
Y97843D01*
X237900D01*
X237042Y97672D01*
X236314Y97186D01*
X236146Y97018D01*
X235921Y97112D01*
X231716D01*
Y95135D01*
X231716D01*
Y94976D01*
X231516Y94776D01*
X231516D01*
Y94000D01*
X226843D01*
Y105557D01*
X245472D01*
X246400Y105372D01*
D02*
G37*
%LPC*%
G36*
X215721Y135050D02*
X214000D01*
Y133408D01*
X215721D01*
Y135050D01*
D02*
G37*
G36*
X213000D02*
X211280D01*
Y133408D01*
X213000D01*
Y135050D01*
D02*
G37*
G36*
X223887Y134667D02*
X221487D01*
Y133545D01*
X222365D01*
X222985Y133669D01*
X223511Y134020D01*
X223863Y134546D01*
X223887Y134667D01*
D02*
G37*
G36*
X220487D02*
X218086D01*
X218110Y134546D01*
X218462Y134020D01*
X218988Y133669D01*
X219609Y133545D01*
X220487D01*
Y134667D01*
D02*
G37*
G36*
X206671Y112851D02*
X201840D01*
Y109300D01*
X206671D01*
Y112851D01*
D02*
G37*
G36*
Y108300D02*
X201840D01*
Y104749D01*
X206671D01*
Y108300D01*
D02*
G37*
G36*
X194350Y166100D02*
X191980D01*
Y163631D01*
X194350D01*
Y166100D01*
D02*
G37*
G36*
X202458Y158300D02*
X199695D01*
Y154257D01*
X202458D01*
Y158300D01*
D02*
G37*
G36*
X196700Y179444D02*
X196342Y179372D01*
X195614Y178886D01*
X195128Y178158D01*
X194957Y177300D01*
Y175000D01*
X196700D01*
Y179444D01*
D02*
G37*
G36*
X192700D02*
Y175000D01*
X194443D01*
Y177300D01*
X194272Y178158D01*
X193786Y178886D01*
X193058Y179372D01*
X192700Y179444D01*
D02*
G37*
G36*
X198695Y158300D02*
X195931D01*
Y154257D01*
X198695D01*
Y158300D01*
D02*
G37*
G36*
X247900Y99356D02*
X245333D01*
Y96100D01*
X247900D01*
Y99356D01*
D02*
G37*
G36*
X233200Y100088D02*
X231716D01*
Y98112D01*
X233200D01*
Y100088D01*
D02*
G37*
G36*
X235684D02*
X234200D01*
Y98112D01*
X235684D01*
Y100088D01*
D02*
G37*
%LPD*%
D10*
X198000Y54250D02*
D03*
Y57950D02*
D03*
X25900Y97850D02*
D03*
Y94150D02*
D03*
X229300Y32400D02*
D03*
Y28699D02*
D03*
X215300Y66800D02*
D03*
Y70501D02*
D03*
X70900Y10150D02*
D03*
Y6450D02*
D03*
X315800Y5550D02*
D03*
Y1850D02*
D03*
X311800Y1999D02*
D03*
Y5700D02*
D03*
X164443Y12146D02*
D03*
Y15846D02*
D03*
X74000Y39299D02*
D03*
Y43000D02*
D03*
X190900Y53950D02*
D03*
Y57650D02*
D03*
X187300Y54100D02*
D03*
Y57801D02*
D03*
X183600Y54100D02*
D03*
Y57801D02*
D03*
X179900Y54100D02*
D03*
Y57801D02*
D03*
X349700Y15950D02*
D03*
Y19650D02*
D03*
X213500Y135550D02*
D03*
Y139250D02*
D03*
X276900Y-6001D02*
D03*
Y-2300D02*
D03*
X271200Y7250D02*
D03*
Y3550D02*
D03*
X220900Y160350D02*
D03*
Y156650D02*
D03*
X255300Y96650D02*
D03*
Y92950D02*
D03*
X215300Y58450D02*
D03*
Y62150D02*
D03*
X399300Y28850D02*
D03*
Y32550D02*
D03*
X376000Y-301D02*
D03*
Y3400D02*
D03*
D11*
X210450Y57200D02*
D03*
X206750D02*
D03*
X25750Y88600D02*
D03*
X22050D02*
D03*
X392550Y63200D02*
D03*
X388850D02*
D03*
X255917Y48959D02*
D03*
X252216D02*
D03*
X208050Y167400D02*
D03*
X211750D02*
D03*
X310700Y205300D02*
D03*
X314401D02*
D03*
X311050Y195600D02*
D03*
X314750D02*
D03*
X237650Y158000D02*
D03*
X233950D02*
D03*
X241400Y157900D02*
D03*
X245101D02*
D03*
X298099Y6500D02*
D03*
X301800D02*
D03*
X319700Y15200D02*
D03*
X315999D02*
D03*
X315750Y11500D02*
D03*
X312050D02*
D03*
X253800Y22800D02*
D03*
X257501D02*
D03*
X232800Y38300D02*
D03*
X236501D02*
D03*
X240699Y18300D02*
D03*
X244400D02*
D03*
X259900Y18100D02*
D03*
X256199D02*
D03*
X252550Y18200D02*
D03*
X248850D02*
D03*
X236800Y18400D02*
D03*
X233099D02*
D03*
X-11811Y35433D02*
D03*
X-8110D02*
D03*
X372400Y-7400D02*
D03*
X368699D02*
D03*
X250400Y22900D02*
D03*
X246699D02*
D03*
X250500Y26700D02*
D03*
X246799D02*
D03*
X282984Y-3470D02*
D03*
X286685D02*
D03*
X300750Y22600D02*
D03*
X297050D02*
D03*
X261550Y117400D02*
D03*
X265250D02*
D03*
X158900Y12100D02*
D03*
X155199D02*
D03*
D12*
X38173Y66700D02*
D03*
D13*
X59827Y71228D02*
D03*
Y62172D02*
D03*
D14*
X5300Y91298D02*
D03*
Y97203D02*
D03*
D15*
X412402Y55118D02*
D03*
Y141732D02*
D03*
Y173228D02*
D03*
Y86614D02*
D03*
X-1400Y71200D02*
D03*
X21200Y71400D02*
D03*
D16*
X-8929Y45216D02*
D03*
X126Y48956D02*
D03*
Y41476D02*
D03*
X172628Y-2040D02*
D03*
Y5440D02*
D03*
X163572Y1700D02*
D03*
D17*
X207350Y150000D02*
D03*
X213650D02*
D03*
X176150Y68100D02*
D03*
X182450D02*
D03*
X271350Y34700D02*
D03*
X277650D02*
D03*
X59399Y91600D02*
D03*
X53100D02*
D03*
X176050Y75000D02*
D03*
X182350D02*
D03*
X304999Y17500D02*
D03*
X298700D02*
D03*
X151801Y69000D02*
D03*
X158100D02*
D03*
X177400Y96200D02*
D03*
X171101D02*
D03*
X17592Y97625D02*
D03*
X11293D02*
D03*
X9250Y84700D02*
D03*
X2950D02*
D03*
D18*
X39200Y109750D02*
D03*
Y103450D02*
D03*
X33200Y91100D02*
D03*
Y97399D02*
D03*
X-10000Y112200D02*
D03*
Y118499D02*
D03*
X23000Y165050D02*
D03*
Y158750D02*
D03*
X164800Y74550D02*
D03*
Y68250D02*
D03*
X-24816Y151981D02*
D03*
Y158280D02*
D03*
X37800Y130599D02*
D03*
Y124300D02*
D03*
X6200Y142250D02*
D03*
Y148550D02*
D03*
X-16700Y135150D02*
D03*
Y141450D02*
D03*
X255900Y107950D02*
D03*
Y101650D02*
D03*
D19*
X203900Y3328D02*
D03*
Y6872D02*
D03*
X290900Y115243D02*
D03*
Y111700D02*
D03*
X270300Y16828D02*
D03*
Y20372D02*
D03*
X259700Y62243D02*
D03*
Y58700D02*
D03*
X340400Y19672D02*
D03*
Y16128D02*
D03*
X345200Y19572D02*
D03*
Y16028D02*
D03*
X203800Y-428D02*
D03*
Y-3972D02*
D03*
X-5500Y97272D02*
D03*
Y93728D02*
D03*
X259500Y48872D02*
D03*
Y45328D02*
D03*
X212900Y45972D02*
D03*
Y42428D02*
D03*
X168500Y40128D02*
D03*
Y43672D02*
D03*
X168300Y20728D02*
D03*
Y24272D02*
D03*
X182900Y95743D02*
D03*
Y92200D02*
D03*
X242200Y58228D02*
D03*
Y61772D02*
D03*
X-5906Y55315D02*
D03*
Y58858D02*
D03*
X222400Y-7772D02*
D03*
Y-4228D02*
D03*
X291900Y-5600D02*
D03*
Y-2057D02*
D03*
D20*
X-13100Y126600D02*
D03*
X-24911D02*
D03*
X287094Y69800D02*
D03*
X298905D02*
D03*
X-15748Y171260D02*
D03*
X-27559D02*
D03*
X211005Y158800D02*
D03*
X199195D02*
D03*
X-15748Y181102D02*
D03*
X-27559D02*
D03*
D21*
X218400Y84700D02*
D03*
Y96511D02*
D03*
X288600Y60300D02*
D03*
Y48489D02*
D03*
D22*
X354600Y2018D02*
D03*
Y-3100D02*
D03*
X269500Y24582D02*
D03*
Y29700D02*
D03*
D23*
X228650Y84400D02*
D03*
X234950D02*
D03*
X207350Y144000D02*
D03*
X213650D02*
D03*
X298550Y11400D02*
D03*
X304850D02*
D03*
X52500Y83800D02*
D03*
X58799D02*
D03*
X194850Y166600D02*
D03*
X201150D02*
D03*
X251500Y140500D02*
D03*
X257799D02*
D03*
X257999Y146800D02*
D03*
X251700D02*
D03*
X291650Y33700D02*
D03*
X285350D02*
D03*
X241999Y30200D02*
D03*
X235700D02*
D03*
X241850Y23800D02*
D03*
X235550D02*
D03*
X386099Y21400D02*
D03*
X379800D02*
D03*
D24*
X248400Y95600D02*
D03*
X241313D02*
D03*
X155400Y41200D02*
D03*
X162487D02*
D03*
D25*
X310642Y102200D02*
D03*
X294500D02*
D03*
X191029Y83100D02*
D03*
X207171D02*
D03*
X191029Y69900D02*
D03*
X207171D02*
D03*
X207171Y95900D02*
D03*
X191029D02*
D03*
X207171Y108800D02*
D03*
X191029D02*
D03*
X353229Y72400D02*
D03*
X369371D02*
D03*
X326129Y72500D02*
D03*
X342271D02*
D03*
D26*
X190300Y30600D02*
D03*
D27*
X208016Y15836D02*
D03*
Y17805D02*
D03*
Y19773D02*
D03*
Y21742D02*
D03*
Y23710D02*
D03*
Y25679D02*
D03*
Y27647D02*
D03*
Y29616D02*
D03*
Y31584D02*
D03*
Y33553D02*
D03*
Y35521D02*
D03*
Y37490D02*
D03*
Y39458D02*
D03*
Y41427D02*
D03*
Y43395D02*
D03*
Y45364D02*
D03*
X172583D02*
D03*
Y43395D02*
D03*
Y41427D02*
D03*
Y39458D02*
D03*
Y37490D02*
D03*
Y35521D02*
D03*
Y33553D02*
D03*
Y31584D02*
D03*
Y29616D02*
D03*
Y27647D02*
D03*
Y25679D02*
D03*
Y23710D02*
D03*
Y21742D02*
D03*
Y19773D02*
D03*
Y17805D02*
D03*
Y15836D02*
D03*
D28*
X205064Y48316D02*
D03*
X203095D02*
D03*
X201127D02*
D03*
X199158D02*
D03*
X197190D02*
D03*
X195221D02*
D03*
X193253D02*
D03*
X191284D02*
D03*
X189316D02*
D03*
X187347D02*
D03*
X185379D02*
D03*
X183410D02*
D03*
X181442D02*
D03*
X179473D02*
D03*
X177505D02*
D03*
X175536D02*
D03*
Y12883D02*
D03*
X177505D02*
D03*
X179473D02*
D03*
X181442D02*
D03*
X183410D02*
D03*
X185379D02*
D03*
X187347D02*
D03*
X189316D02*
D03*
X191284D02*
D03*
X193253D02*
D03*
X195221D02*
D03*
X197190D02*
D03*
X199158D02*
D03*
X201127D02*
D03*
X203095D02*
D03*
X205064D02*
D03*
D29*
X283830Y97700D02*
D03*
Y102700D02*
D03*
Y107700D02*
D03*
Y112700D02*
D03*
X262570Y97700D02*
D03*
Y102700D02*
D03*
Y107700D02*
D03*
Y112700D02*
D03*
D30*
X256505Y70700D02*
D03*
X244694D02*
D03*
X245100Y84500D02*
D03*
X256911D02*
D03*
D31*
X12028Y132300D02*
D03*
X15572D02*
D03*
X400Y133000D02*
D03*
X-3143D02*
D03*
X249857Y155400D02*
D03*
X253400D02*
D03*
X170928Y-8600D02*
D03*
X174472D02*
D03*
X155128Y16000D02*
D03*
X158672D02*
D03*
X312428Y-4100D02*
D03*
X315972D02*
D03*
X183872Y8600D02*
D03*
X180328D02*
D03*
X213943Y9400D02*
D03*
X210400D02*
D03*
D32*
X241946Y116600D02*
D03*
X222654D02*
D03*
D33*
X304100Y190100D02*
D03*
X282100Y205100D02*
D03*
Y190100D02*
D03*
X304100Y205100D02*
D03*
Y200100D02*
D03*
Y195100D02*
D03*
X282100Y200100D02*
D03*
Y195100D02*
D03*
X344330Y-3935D02*
D03*
X322330Y11065D02*
D03*
Y-3935D02*
D03*
X344330Y11065D02*
D03*
Y6065D02*
D03*
Y1065D02*
D03*
X322330Y6065D02*
D03*
Y1065D02*
D03*
D34*
X186600Y124600D02*
D03*
X174000Y111900D02*
D03*
D35*
X22542Y214100D02*
D03*
X6400D02*
D03*
D36*
X182600Y87300D02*
D03*
Y81001D02*
D03*
X263400Y35650D02*
D03*
Y29350D02*
D03*
X404400Y30050D02*
D03*
Y23750D02*
D03*
X255900Y119850D02*
D03*
Y113550D02*
D03*
X226378Y158268D02*
D03*
Y164567D02*
D03*
X39300Y97650D02*
D03*
Y91350D02*
D03*
X-600Y91250D02*
D03*
Y97550D02*
D03*
X271400Y-6950D02*
D03*
Y-650D02*
D03*
D37*
X298900Y-8518D02*
D03*
Y1718D02*
D03*
X-9800Y144918D02*
D03*
Y134682D02*
D03*
X46700Y100764D02*
D03*
Y111000D02*
D03*
X-800Y149318D02*
D03*
Y139082D02*
D03*
D38*
X-3700Y158870D02*
D03*
X1300D02*
D03*
X6300D02*
D03*
X11300D02*
D03*
X-3700Y180130D02*
D03*
X1300D02*
D03*
X6300D02*
D03*
X11300D02*
D03*
X-4100Y125930D02*
D03*
X900D02*
D03*
X30900Y104670D02*
D03*
Y125930D02*
D03*
X25900D02*
D03*
X20900D02*
D03*
X15900D02*
D03*
X10900D02*
D03*
X5900D02*
D03*
X25900Y104670D02*
D03*
X20900D02*
D03*
X15900D02*
D03*
X10900D02*
D03*
X5900D02*
D03*
X900D02*
D03*
X-4100D02*
D03*
X235800Y76860D02*
D03*
X230800D02*
D03*
X225800D02*
D03*
X220800D02*
D03*
X235800Y55600D02*
D03*
X230800D02*
D03*
X225800D02*
D03*
X220800D02*
D03*
D39*
X167145Y88840D02*
D03*
Y81360D02*
D03*
X176200Y85100D02*
D03*
D40*
X222400Y2922D02*
D03*
Y-700D02*
D03*
D41*
X394461Y-2261D02*
D03*
X397021D02*
D03*
X399580D02*
D03*
X402139D02*
D03*
Y15061D02*
D03*
X399580D02*
D03*
X397021D02*
D03*
X394461D02*
D03*
X381061D02*
D03*
X383621D02*
D03*
X386179D02*
D03*
X388739D02*
D03*
Y-2261D02*
D03*
X386179D02*
D03*
X383621D02*
D03*
X381061D02*
D03*
D42*
X398300Y6400D02*
D03*
X384900D02*
D03*
D43*
X330641Y17300D02*
D03*
X335759D02*
D03*
D44*
X192200Y174500D02*
D03*
X207200Y196500D02*
D03*
X192200D02*
D03*
X207200Y174500D02*
D03*
X202200D02*
D03*
X197200D02*
D03*
X202200Y196500D02*
D03*
X197200D02*
D03*
X291835Y26530D02*
D03*
X276835Y4530D02*
D03*
X291835D02*
D03*
X276835Y26530D02*
D03*
X281835D02*
D03*
X286835D02*
D03*
X281835Y4530D02*
D03*
X286835D02*
D03*
X270100Y74300D02*
D03*
X275100D02*
D03*
X270100Y52300D02*
D03*
X275100D02*
D03*
X280100D02*
D03*
X265100Y74300D02*
D03*
X280100D02*
D03*
X265100Y52300D02*
D03*
D45*
X270248Y172300D02*
D03*
Y162300D02*
D03*
Y152300D02*
D03*
Y142300D02*
D03*
Y132300D02*
D03*
X363752D02*
D03*
Y172300D02*
D03*
D46*
X37503Y143800D02*
D03*
X12700D02*
D03*
D47*
X218417Y199000D02*
D03*
X257000D02*
D03*
D48*
X264481Y90043D02*
D03*
Y82957D02*
D03*
X279481Y90043D02*
D03*
Y82957D02*
D03*
X272081Y89987D02*
D03*
Y82900D02*
D03*
D49*
X216832Y4510D02*
D03*
X209352D02*
D03*
X213092Y-4939D02*
D03*
D50*
X180839Y-2200D02*
D03*
X198161D02*
D03*
D51*
X289200Y85000D02*
D03*
X303800D02*
D03*
D52*
X220987Y152667D02*
D03*
Y150167D02*
D03*
Y147667D02*
D03*
Y145167D02*
D03*
Y142667D02*
D03*
Y140167D02*
D03*
Y137667D02*
D03*
Y135167D02*
D03*
X244609Y152667D02*
D03*
Y150167D02*
D03*
Y147667D02*
D03*
Y145167D02*
D03*
Y142667D02*
D03*
Y140167D02*
D03*
Y137667D02*
D03*
D53*
Y135167D02*
D03*
D54*
X36964Y117400D02*
D03*
X47200D02*
D03*
D55*
X233700Y92100D02*
D03*
Y97612D02*
D03*
D56*
X245532Y44318D02*
D03*
Y41759D02*
D03*
Y39200D02*
D03*
X253800D02*
D03*
Y44318D02*
D03*
D57*
X21600Y171994D02*
D03*
Y183806D02*
D03*
X17900Y190606D02*
D03*
Y202417D02*
D03*
D58*
X241313Y89987D02*
X246800Y84500D01*
X218028Y50800D02*
X234800D01*
X213200Y45972D02*
X218028Y50800D01*
X207350Y144000D02*
Y144300D01*
Y139106D02*
Y144000D01*
X378767Y65700D02*
X388667Y55800D01*
X365067Y65700D02*
X378767D01*
X358507Y72260D02*
X365067Y65700D01*
X391535Y29232D02*
Y29823D01*
X393775Y24900D02*
X397281Y21394D01*
X392900Y24900D02*
X393775D01*
X397281Y21394D02*
X399506D01*
X399667Y21700D02*
X401718Y23750D01*
X399300Y21700D02*
X399667D01*
X401718Y23750D02*
X404400D01*
X380913Y29200D02*
X383713D01*
X353229Y72260D02*
X358507D01*
X342571D02*
X353229D01*
Y72400D01*
Y41948D02*
Y72260D01*
X398341Y31591D02*
X399300Y32550D01*
X396018Y31591D02*
X398341D01*
X395477Y31050D02*
X396018Y31591D01*
X393354Y31050D02*
X395477D01*
X391535Y29232D02*
X393354Y31050D01*
X383582Y29069D02*
X383713Y29200D01*
X383582Y28938D02*
Y29069D01*
X364419Y27081D02*
X377852D01*
X358800Y32700D02*
X364419Y27081D01*
X380192Y29921D02*
X380913Y29200D01*
X365256Y29921D02*
X380192D01*
X336600Y32700D02*
X358800D01*
X353229Y41948D02*
X365256Y29921D01*
X377852Y27081D02*
X379733Y25200D01*
X381201Y180118D02*
X388090Y173228D01*
X412402D01*
X424213D02*
X428642Y168799D01*
X412402Y173228D02*
X424213D01*
X410039Y47343D02*
Y64173D01*
X391800Y45800D02*
X408497D01*
X410039Y47343D01*
Y64173D02*
Y84252D01*
X412402Y86614D01*
Y141732D02*
Y171900D01*
X401300Y118200D02*
X404879Y114621D01*
X418600D01*
X206000Y120000D02*
X207171Y118829D01*
X206000Y120000D02*
Y127500D01*
X199195Y134306D02*
X206000Y127500D01*
X202500Y136000D02*
X210500Y128000D01*
Y121500D02*
Y128000D01*
X199195Y134306D02*
Y158800D01*
X211005Y157500D02*
Y158800D01*
X207350Y153845D02*
X211005Y157500D01*
X207350Y150000D02*
Y153845D01*
X202500Y136000D02*
Y148500D01*
X204000Y150000D01*
X207350D01*
X213650Y144000D02*
Y150000D01*
Y144000D02*
X214816Y145167D01*
X220987D01*
X244609Y140167D02*
X251167D01*
X236833D02*
X244609D01*
X220987Y145167D02*
X231833D01*
X236833Y140167D01*
X251167D02*
X251500Y140500D01*
X206478Y158800D02*
Y161272D01*
Y158800D02*
X211005D01*
X201150Y166600D02*
X206478Y161272D01*
X210500Y121500D02*
X215400Y116600D01*
X222654D01*
Y108546D02*
Y116600D01*
X15600Y177800D02*
X31069D01*
X194850Y158800D02*
X199195D01*
X194850D02*
Y166600D01*
X229528Y164567D02*
X230315Y165354D01*
X226378Y164567D02*
X229528D01*
X216535Y131890D02*
Y132514D01*
X213500Y135550D02*
X216535Y132514D01*
X210907Y135550D02*
X213500D01*
X207350Y139106D02*
X210907Y135550D01*
X191245Y107301D02*
X193600Y109656D01*
Y115500D01*
X185800Y123300D02*
X193600Y115500D01*
X183069Y103469D02*
X191048Y95490D01*
X174200Y111100D02*
X181831Y103469D01*
X183069D01*
X250600Y52867D02*
Y83700D01*
X249800Y84500D02*
X250600Y83700D01*
X-15590Y71339D02*
X-1539D01*
X-25591D02*
X-15590D01*
X-1539D02*
X-1400Y71200D01*
X-25591Y71339D02*
Y81339D01*
X-15590D01*
X-31281Y87029D02*
X-25591Y81339D01*
X-31281Y87029D02*
Y154719D01*
X-27720Y158280D01*
X-24816D01*
X-19620D01*
X-15748Y162152D01*
Y171260D01*
X-4200Y174700D02*
X600D01*
X-6900D02*
X-4200D01*
X-3700Y175200D01*
Y180130D01*
X-15748Y181102D02*
X-14776Y180130D01*
X-3700D01*
X-15748Y171260D02*
X-10340D01*
X-6900Y174700D01*
X600D02*
X1300Y175400D01*
Y180130D01*
X13270D02*
X15600Y177800D01*
X11300Y180130D02*
X13270D01*
X6300Y172800D02*
X9100D01*
X6300D02*
Y180130D01*
Y171100D02*
Y172800D01*
X11300Y175000D02*
Y180130D01*
X9100Y172800D02*
X11300Y175000D01*
X900Y171100D02*
X6300D01*
X900Y166200D02*
Y171100D01*
X-3700Y158870D02*
Y161600D01*
X900Y166200D01*
X6400Y189000D02*
Y214100D01*
X28712Y183412D02*
X30000Y184700D01*
Y187500D01*
X26500Y191000D02*
X30000Y187500D01*
X17900Y206700D02*
X22542Y211342D01*
Y214100D01*
X28500D01*
X32200Y217800D02*
X34000D01*
X29801Y130599D02*
X37800D01*
X15600Y146700D02*
X18600D01*
X15600D02*
Y163200D01*
X12800Y166000D02*
X15600Y163200D01*
X8200Y166000D02*
X12800D01*
X6300Y164100D02*
X8200Y166000D01*
X6300Y158870D02*
Y164100D01*
X70900Y6450D02*
X71428Y5921D01*
X79130D01*
X268400Y112100D02*
X268700Y111800D01*
X269300Y122800D02*
X293771D01*
X302058Y114513D01*
X316187D01*
X319300Y111400D01*
X235800Y76860D02*
Y83550D01*
X248533Y50800D02*
X250600Y52867D01*
X212900Y45972D02*
X213200D01*
X172519Y61519D02*
X174900Y63900D01*
X168081Y61519D02*
X172519D01*
X164800Y64800D02*
X168081Y61519D01*
X264481Y82957D02*
X279481D01*
X258454D02*
X264481D01*
X256911Y84500D02*
X258454Y82957D01*
X224600Y106600D02*
X225800Y107800D01*
X246400D01*
X207190Y83679D02*
X217379D01*
X218400Y84700D01*
X222500Y88800D01*
X224600D02*
X230550D01*
X222500D02*
X224600D01*
Y106600D01*
X222654Y108546D02*
X224600Y106600D01*
X174900Y63900D02*
X199100D01*
X205099Y69899D01*
X206993D01*
X177400Y96200D02*
X177857Y95743D01*
X182900D01*
X176200Y82600D02*
Y85100D01*
X179701Y81001D02*
X182600D01*
X178000Y79300D02*
X179701Y81001D01*
X170740Y81360D02*
X172533Y83153D01*
Y86944D01*
X173470Y87881D01*
X182019D01*
X182600Y87300D01*
X171101Y89401D02*
Y96200D01*
X170540Y88840D02*
X171101Y89401D01*
X167145Y88840D02*
X170540D01*
X182600Y87300D02*
X182900Y87600D01*
Y92200D01*
X182600Y74500D02*
Y81001D01*
X164800Y64800D02*
Y68250D01*
X170600Y64300D02*
Y68000D01*
X170800Y68200D01*
X182600Y68201D02*
Y68303D01*
X176700Y74203D02*
X182600Y68303D01*
X176700Y74203D02*
Y74499D01*
X176500Y74299D02*
X176700Y74499D01*
X170600Y74299D02*
X176500D01*
X170600D02*
X170740Y74439D01*
Y81360D01*
X167145D02*
X170740D01*
X158100Y76149D02*
X159699Y74550D01*
X157970Y76279D02*
X158100Y76149D01*
X159699Y74550D02*
X164800D01*
X158100Y69000D02*
Y76149D01*
X151801Y79952D02*
X157970Y86121D01*
X151801Y69000D02*
Y79952D01*
X157970Y86121D02*
X160689Y88840D01*
X167145D01*
X274257Y210043D02*
X279200Y205100D01*
X282100D01*
X270500Y202400D02*
Y210043D01*
Y202400D02*
X272800Y200100D01*
X282100D01*
X275242Y195100D02*
X282100D01*
X256643Y167500D02*
X257000Y167142D01*
X257999Y146800D02*
Y150399D01*
X253400Y155400D02*
X256100D01*
X201150Y166600D02*
Y166600D01*
X207200Y168250D02*
X208050Y167400D01*
X207200Y168250D02*
Y174500D01*
Y188300D02*
X210400D01*
X201600D02*
X207200D01*
Y196500D01*
X197000Y188300D02*
X201600D01*
X202200Y188900D01*
Y196500D01*
X194300Y188300D02*
X197000D01*
X197200Y188500D01*
Y196500D01*
X218417Y196317D02*
Y199000D01*
X210400Y188300D02*
X218417Y196317D01*
X192200Y190400D02*
X194300Y188300D01*
X192200Y190400D02*
Y196500D01*
X201150Y166600D02*
X202200Y167650D01*
Y174500D01*
X348900Y219800D02*
X357600D01*
X336500Y216300D02*
X345400D01*
X348900Y179000D02*
X355600Y172300D01*
X363752D01*
X191048Y83679D02*
X191400Y84031D01*
Y89100D01*
X194895Y107301D02*
X197099D01*
X192799Y69899D02*
X199100Y76200D01*
X190851Y69899D02*
X192799D01*
X206993Y83482D02*
X207190Y83679D01*
X206993Y69899D02*
Y83482D01*
X255900Y107950D02*
X261920D01*
X255900D02*
Y113550D01*
X230550Y88800D02*
X234950Y84400D01*
X235800Y83550D01*
X224900Y36800D02*
X229300D01*
X319300Y54100D02*
X322500Y50900D01*
X319300Y54100D02*
Y111400D01*
X324700Y112100D02*
X325000D01*
X338600Y125700D01*
X362000D01*
X363300Y127000D01*
X359400Y144500D02*
X363300Y140600D01*
X342200Y144500D02*
X359400D01*
X323700Y163000D02*
X342200Y144500D01*
X296500Y216300D02*
X315100D01*
X323700Y207700D01*
Y163000D02*
Y207700D01*
X246800Y84500D02*
X249800D01*
X241313Y89987D02*
Y95600D01*
X237900D02*
X241313D01*
X236500Y92100D02*
Y94200D01*
X233700Y92100D02*
X236500D01*
Y94200D02*
X237900Y95600D01*
X190041Y89100D02*
X191400D01*
X188667Y87726D02*
X190041Y89100D01*
X191048Y95490D02*
X192710D01*
X199100Y89100D01*
Y76200D02*
Y89100D01*
X383800Y23400D02*
Y25200D01*
X386106Y17300D02*
Y21094D01*
X399506Y15900D02*
Y21394D01*
X383800Y23400D02*
X386106Y21094D01*
X379733Y25200D02*
X383800D01*
X330400Y38900D02*
X336600Y32700D01*
X322500Y40628D02*
Y50900D01*
Y40628D02*
X322572Y40700D01*
X322600D01*
X232848Y44481D02*
X232981D01*
X229300Y40933D02*
X232848Y44481D01*
X229300Y36800D02*
Y40933D01*
X232981Y44481D02*
X234519Y46019D01*
X238233Y50800D02*
X248533D01*
X234519Y46019D02*
Y46348D01*
X233919Y46948D02*
X234519Y46348D01*
X233919Y46948D02*
Y49919D01*
X234800Y50800D02*
X234881Y50881D01*
X238152D01*
X238233Y50800D01*
X233919Y49919D02*
X234800Y50800D01*
X388667Y55800D02*
X391800D01*
X275100Y47700D02*
Y52300D01*
X274500Y47100D02*
X275100Y47700D01*
X274400Y97600D02*
X283530D01*
X262570Y97700D02*
X269300D01*
X271500Y99900D01*
X256200Y102000D02*
X256900Y102700D01*
X262570D01*
X269300D01*
X274400Y97600D01*
X262570Y107700D02*
X266900D01*
X268500Y109300D01*
X261920Y107950D02*
X262370Y107500D01*
X251100D02*
X262370D01*
X268700Y109300D02*
Y111800D01*
X283830Y107700D02*
X288000D01*
X290700Y110400D01*
X290900D02*
Y111700D01*
X283830Y102700D02*
X293900D01*
X300000Y102200D02*
X303600Y98600D01*
X294500Y102200D02*
X300000D01*
X293900Y102700D02*
X294200Y103000D01*
X303600Y90300D02*
Y98600D01*
X286500Y85000D02*
X289200D01*
X284500Y83000D02*
X286500Y85000D01*
X279481Y82957D02*
X284500D01*
X341900Y71300D02*
X342571Y71971D01*
Y72260D01*
X326300Y72700D02*
X326429Y72829D01*
X324700Y104400D02*
Y112100D01*
X385600Y63200D02*
X388850D01*
X384500Y64300D02*
X385600Y63200D01*
X392550Y57950D02*
Y63200D01*
X392200Y57600D02*
X392550Y57950D01*
X326129Y72500D02*
X327100D01*
X376200Y72400D02*
X383800Y64800D01*
X369371Y72400D02*
X376200D01*
X383700Y64700D02*
X383800Y64600D01*
X324700Y82500D02*
Y104400D01*
X325400Y81900D02*
X326429Y80871D01*
Y72829D02*
Y80871D01*
X324700Y82500D02*
X325350Y81850D01*
X326429Y80871D02*
X339429D01*
X341700Y78600D01*
X361900Y72800D02*
X368200D01*
X368400Y72600D01*
X19300Y141100D02*
X29801Y130599D01*
X19300Y141100D02*
Y146500D01*
X18600Y146700D02*
X18850Y146950D01*
X17900Y202024D02*
Y202417D01*
Y206700D01*
X28500Y214100D02*
X30350Y215950D01*
X345400Y216300D02*
X348900Y219800D01*
X357600D02*
X361100Y216300D01*
X270500Y210043D02*
X274257D01*
X348900Y179000D02*
Y190272D01*
X17900Y191000D02*
X26500D01*
X21600Y183412D02*
X28712D01*
X401100Y195800D02*
Y216300D01*
X30350Y215950D02*
X32200Y217800D01*
X369085Y72115D02*
X369300Y71900D01*
X363300Y127000D02*
Y132300D01*
Y140600D01*
X272100Y190100D02*
X282100D01*
X272100Y191957D02*
X275242Y195100D01*
X258050Y136950D02*
Y140500D01*
X207171Y108800D02*
Y118829D01*
X170800Y68200D02*
X176700D01*
D59*
X222400Y-4700D02*
X225900D01*
X183410Y8600D02*
Y12883D01*
X212169Y46703D02*
X212900Y45972D01*
X211079Y46703D02*
X212169D01*
X209743Y48039D02*
X211079Y46703D01*
X209743Y48039D02*
Y49929D01*
X210681Y50867D01*
Y56969D01*
X210450Y57200D02*
X210681Y56969D01*
X222400Y-4228D02*
Y-700D01*
Y-4700D02*
Y-4228D01*
X182235Y5135D02*
X183872Y6772D01*
X177865Y5135D02*
X182235D01*
X225019Y-119D02*
Y6081D01*
Y-119D02*
X225600Y-700D01*
X224400Y6700D02*
X225019Y6081D01*
X219022Y6700D02*
X224400D01*
X204634Y15622D02*
X205278Y16266D01*
X183400Y15622D02*
X204634D01*
X247300Y2400D02*
Y12400D01*
X232800Y-4800D02*
X247100D01*
X228700Y-700D02*
X232800Y-4800D01*
X225600Y-700D02*
X228700D01*
X225900Y-4700D02*
X226400Y-5200D01*
X189500Y-6000D02*
X192881Y-9381D01*
X186500Y2000D02*
X189100Y-600D01*
X186500Y2000D02*
Y8100D01*
X186000Y8600D02*
X186500Y8100D01*
X183872Y8600D02*
X186000D01*
X175322Y22400D02*
Y38100D01*
X175258Y38164D02*
X175322Y38100D01*
X175258Y38164D02*
Y40895D01*
X174727Y41427D02*
X175258Y40895D01*
X216832Y4510D02*
X219022Y6700D01*
X222400Y-700D02*
X225600D01*
X168300Y18100D02*
Y20728D01*
Y18100D02*
X168400Y18000D01*
X159000Y16000D02*
X162000Y19000D01*
X158672Y16000D02*
X159000D01*
X172583Y21742D02*
X174664D01*
X169313D02*
X172583D01*
X174664D02*
X175322Y22400D01*
X205278Y43391D02*
X205283Y43395D01*
X205278Y16266D02*
Y43391D01*
X183410Y12883D02*
Y15612D01*
X183400Y15622D02*
X183410Y15612D01*
X171600Y4413D02*
X172628Y5440D01*
X171600Y2100D02*
Y4413D01*
X183872Y6772D02*
Y8600D01*
X157970Y22779D02*
X161621D01*
X164443Y19957D01*
Y15846D02*
Y19957D01*
X163572Y11275D02*
X164443Y12146D01*
X163572Y1700D02*
Y11275D01*
X158672Y12328D02*
X158900Y12100D01*
X158672Y12328D02*
Y16000D01*
X168300Y20728D02*
X169313Y21742D01*
X209366Y43395D02*
X210771Y44800D01*
X211728D02*
X212900Y45972D01*
X210771Y44800D02*
X211728D01*
X208016Y43395D02*
X209366D01*
X162487Y41200D02*
X163558Y40128D01*
X168500D01*
X169723Y41351D01*
X172508D01*
X172583Y41427D01*
X189368Y45642D02*
X203600D01*
Y45578D02*
X204634D01*
X205278Y44934D01*
Y43400D02*
Y44934D01*
Y43400D02*
X205283Y43395D01*
X208016D01*
X189316Y45694D02*
X189368Y45642D01*
X172583Y41427D02*
X174727D01*
X175322Y42022D01*
Y44934D01*
X175966Y45578D01*
X189200D01*
X189316Y45694D01*
Y48316D01*
X255917Y45509D02*
Y48959D01*
X250600Y52867D02*
X251948Y51519D01*
X255917Y48959D02*
X259413D01*
X217800Y-9381D02*
X218511Y-10092D01*
X224408D02*
X226400Y-8100D01*
X218511Y-10092D02*
X224408D01*
X192881Y-9381D02*
X217800D01*
X226400Y-8100D02*
Y-5200D01*
X253800Y44318D02*
X254725D01*
X255917Y45509D01*
X251948Y51519D02*
X259081D01*
X259500Y51100D01*
Y48872D02*
Y51100D01*
X472904Y119804D02*
X480315D01*
X469300Y116200D02*
X472904Y119804D01*
X469300Y89200D02*
Y116200D01*
X466714Y86614D02*
X469300Y89200D01*
X440945Y86614D02*
X466714D01*
X436314D02*
X440945D01*
D60*
X206151Y48316D02*
X208400Y50566D01*
X205064Y48316D02*
X206151D01*
X208400Y50566D02*
Y53600D01*
X203581Y57081D02*
Y60516D01*
X200308Y59992D02*
X201500Y58800D01*
X196407Y59992D02*
X200308D01*
X203150Y56650D02*
X203581Y57081D01*
X202905Y61192D02*
X203581Y60516D01*
X175571Y61192D02*
X202905D01*
X203400Y56400D02*
X205950D01*
X199550D02*
X203400D01*
X204200Y52200D02*
X204600D01*
X200700Y52300D02*
X201600Y53200D01*
X199800Y52300D02*
X200700D01*
X197190Y49690D02*
X199800Y52300D01*
X205950Y56400D02*
X206750Y57200D01*
X196200Y52450D02*
X198000Y54250D01*
X196200Y52103D02*
Y52450D01*
X195221Y51124D02*
X196200Y52103D01*
X195221Y48316D02*
Y51124D01*
X198000Y57950D02*
X199550Y56400D01*
X195681Y59267D02*
X196407Y59992D01*
X195681Y55438D02*
Y59267D01*
X173700Y59321D02*
X175571Y61192D01*
X197190Y48316D02*
Y49690D01*
X195000Y54757D02*
X195681Y55438D01*
X195000Y52600D02*
Y54757D01*
X193253Y50853D02*
X195000Y52600D01*
X192750Y57650D02*
X193600Y56800D01*
Y56300D02*
Y56800D01*
X64028Y71228D02*
X64200Y71400D01*
X59827Y71228D02*
X64028D01*
X38173Y66700D02*
X47900D01*
X52428Y62172D01*
X59827D01*
X38173Y66700D02*
Y74527D01*
X36500Y76200D02*
X38173Y74527D01*
X32600Y76200D02*
X36500D01*
X22050Y86750D02*
X32600Y76200D01*
X22050Y86750D02*
Y88600D01*
X22100Y92200D02*
X34399Y79901D01*
X18999Y92200D02*
X22100D01*
X34399Y79901D02*
X54900D01*
X383907Y31693D02*
X384500Y31100D01*
X381107Y31693D02*
X383907D01*
X377100Y35700D02*
X381107Y31693D01*
X387008Y31008D02*
X391800Y35800D01*
X387008Y27708D02*
Y31008D01*
X400555Y26520D02*
X401121D01*
X398502Y28051D02*
X398524D01*
X397342D02*
X398502D01*
X399300Y28850D01*
X398130Y27679D02*
X398502Y28051D01*
X400512Y26478D02*
Y27638D01*
X399300Y28850D02*
X400512Y27638D01*
X398130Y26000D02*
Y27679D01*
X400512Y26478D02*
X400555Y26520D01*
X396063Y26772D02*
X397342Y28051D01*
X398524D02*
X399300Y28828D01*
Y28850D01*
X387008Y27708D02*
X393716Y21000D01*
X385708Y26903D02*
X391300Y21311D01*
X385708Y26903D02*
Y29892D01*
X384500Y31100D02*
X385708Y29892D01*
X359600Y7600D02*
Y20593D01*
X357200Y6606D02*
Y19599D01*
X350499Y26300D02*
X357200Y19599D01*
X343806Y26300D02*
X350499D01*
X358400Y7103D02*
Y20096D01*
X350996Y27500D02*
X358400Y20096D01*
X344303Y27500D02*
X350996D01*
X350696Y29497D02*
X359600Y20593D01*
X332606Y29497D02*
X350696D01*
X360800Y11043D02*
Y21090D01*
X351090Y30800D02*
X360800Y21090D01*
X335743Y30800D02*
X351090D01*
X243781Y37119D02*
X249562D01*
X251200Y41159D02*
X252152Y42110D01*
X250781Y38338D02*
Y40400D01*
X251200Y41159D02*
Y41300D01*
Y40819D02*
Y41159D01*
X251653Y37513D02*
X255944D01*
X246325Y35919D02*
X250059D01*
X251653Y37513D01*
X250781Y40400D02*
X251200Y40819D01*
X249562Y37119D02*
X250781Y38338D01*
X255944Y37513D02*
X256513Y38081D01*
X233268Y115157D02*
X234069D01*
X235511Y116600D01*
X377563Y-6500D02*
X382700D01*
X371363Y-300D02*
X377563Y-6500D01*
X367500Y-300D02*
X371363D01*
X376795Y-7700D02*
X396100D01*
X370595Y-1500D02*
X376795Y-7700D01*
X367003Y-1500D02*
X370595D01*
X207387Y113387D02*
X207500Y113500D01*
X17200Y93999D02*
X18999Y92200D01*
X12900Y118800D02*
X18500Y113200D01*
Y101565D02*
Y113200D01*
Y101565D02*
X19346Y100719D01*
X19581D01*
X21500Y98800D01*
Y94700D02*
Y98800D01*
X14919Y93999D02*
X17200D01*
X34524Y133419D02*
X40081D01*
X33362Y134581D02*
X34524Y133419D01*
X32119Y134581D02*
X33362D01*
X23000Y143700D02*
X32119Y134581D01*
X23000Y143700D02*
Y158750D01*
X33100Y149000D02*
X35900D01*
X37503Y147397D01*
Y143800D02*
Y147397D01*
Y135503D02*
Y140603D01*
X33400Y139000D02*
X35900D01*
X37503Y140603D01*
Y143800D01*
X40081Y133419D02*
X40753Y132747D01*
X37500Y135500D02*
X37503Y135503D01*
X-27559Y181102D02*
X-23622D01*
X21600Y166450D02*
X23000Y165050D01*
X4000Y139082D02*
X4982D01*
X-800D02*
X4000D01*
Y140247D01*
X6003Y142250D01*
X6200D01*
X220900Y156650D02*
X220987Y156563D01*
Y152667D02*
Y156563D01*
X274500Y37753D02*
X274947Y38200D01*
X233099Y18400D02*
Y20701D01*
X232100Y21700D02*
X233099Y20701D01*
X232100Y21700D02*
Y23600D01*
X232300Y23800D01*
X235550D01*
X224900Y21800D02*
X231645D01*
X226150Y30550D02*
X227450D01*
X224900Y31800D02*
X226150Y30550D01*
X227450D02*
X229300Y28699D01*
X237300Y2400D02*
X242043D01*
X40753Y126347D02*
Y132747D01*
X46700Y111000D02*
Y120400D01*
X40753Y126347D02*
X46700Y120400D01*
X33935Y108865D02*
X39700Y103100D01*
X32200Y110600D02*
X33935Y108865D01*
X36331Y111262D01*
Y116768D01*
X36964Y117400D01*
X37800Y118236D01*
Y124300D01*
X39200Y109750D02*
Y113200D01*
X-27559Y171260D02*
X-23340D01*
X-27559D02*
Y181102D01*
Y165541D02*
Y171260D01*
X-24911Y126600D02*
X-20974D01*
X-24816Y134379D02*
Y151981D01*
Y134379D02*
X-17037Y126600D01*
X-13100D01*
X4982Y139082D02*
X9164Y134900D01*
X19000D01*
X20900Y133000D01*
Y125930D02*
Y133000D01*
X25900Y119800D02*
Y125930D01*
X-800Y149318D02*
X-32Y148550D01*
X6200D01*
Y148717D01*
X11300Y153817D01*
Y158870D01*
X1000Y158570D02*
X1300Y158870D01*
X1000Y154500D02*
Y158570D01*
X-9800Y151963D02*
X-7027Y154736D01*
X-9800Y144918D02*
Y151963D01*
Y141769D02*
Y144918D01*
X-10119Y141450D02*
X-9800Y141769D01*
X-16700Y141450D02*
X-10119D01*
X-3700Y158870D02*
X-3458Y158628D01*
Y137711D02*
Y158628D01*
Y137711D02*
X-1147Y135400D01*
X400D01*
Y133000D02*
Y135400D01*
Y133000D02*
X3900D01*
X5900Y131000D01*
Y125930D02*
Y131000D01*
X8700Y132300D02*
X12028D01*
X15572Y121472D02*
Y132300D01*
X12900Y118800D02*
X15572Y121472D01*
X-3842Y118800D02*
X12900D01*
X-5045Y121700D02*
X700D01*
X-5125Y121780D02*
X-5045Y121700D01*
X-5750Y121780D02*
X-5125D01*
X-7269Y123300D02*
X-5750Y121780D01*
X-5622Y120580D02*
X-3842Y118800D01*
X-7068Y120580D02*
X-5622D01*
X-7659Y121171D02*
X-7068Y120580D01*
X-8950Y121171D02*
X-7659D01*
X-11200Y123421D02*
X-8950Y121171D01*
X-11200Y123421D02*
Y124700D01*
X-13100Y126600D02*
X-11200Y124700D01*
X-16700Y135150D02*
X-16231Y134682D01*
X-9800D01*
X-7592D01*
X-7269Y134359D01*
Y123300D02*
Y134359D01*
X700Y121700D02*
X900Y121900D01*
Y125930D01*
X-4100Y132043D02*
X-3143Y133000D01*
X-4100Y125930D02*
Y132043D01*
X-10000Y118499D02*
X-6484D01*
X-4700Y84700D02*
X2950D01*
X-4100Y98900D02*
Y104670D01*
X-10000Y112200D02*
X-1000D01*
X900Y110300D01*
Y104670D02*
Y110300D01*
X100Y103870D02*
X900Y104670D01*
X100Y97372D02*
Y103870D01*
X5300Y97400D02*
X5900Y98000D01*
Y104670D01*
X5300Y91101D02*
X8699D01*
X-600Y87900D02*
Y90728D01*
X46700Y97200D02*
Y100764D01*
X39400Y87600D02*
Y90257D01*
X33200Y87700D02*
Y91100D01*
X11293Y97625D02*
X14919Y93999D01*
X15900Y99317D02*
X17592Y97625D01*
X15900Y99317D02*
Y104670D01*
X25900Y98100D02*
X26300Y97700D01*
X25900Y98100D02*
Y104670D01*
X39700Y98400D02*
Y103100D01*
X22800Y110600D02*
X32200D01*
X20900Y108700D02*
X22800Y110600D01*
X20900Y104670D02*
Y108700D01*
X59399Y91600D02*
X62600D01*
X54900Y79901D02*
X58799Y83800D01*
X52500Y91000D02*
X53100Y91600D01*
X52500Y83800D02*
Y91000D01*
X58799Y83800D02*
X66321Y76279D01*
X79230D01*
X73099Y40200D02*
X74000Y39299D01*
X66100Y40200D02*
X73099D01*
X126Y41476D02*
X59776D01*
X-8386Y61339D02*
X-5906Y58858D01*
X-15590Y61339D02*
X-8386D01*
X-2215Y55315D02*
X126Y52974D01*
X-5906Y55315D02*
X-2215D01*
X126Y48976D02*
Y52974D01*
X-20600Y56329D02*
X-15590Y61339D01*
X-20600Y38600D02*
Y56329D01*
Y38600D02*
X-10400Y28400D01*
X73609D01*
X79230Y22779D01*
X74000Y39299D02*
X79230Y34069D01*
Y32621D02*
Y34069D01*
X79130Y48130D02*
Y49479D01*
X74000Y43000D02*
X79130Y48130D01*
X265100Y16097D02*
Y22494D01*
X263900Y15600D02*
Y21997D01*
Y15600D02*
X265992Y13508D01*
X265100Y16097D02*
X266489Y14708D01*
X262200Y2130D02*
Y22000D01*
X261400Y22800D02*
X262200Y22000D01*
X260977Y24920D02*
X263900Y21997D01*
X260894Y26700D02*
X265100Y22494D01*
X250500Y26700D02*
X260894D01*
X255921Y24920D02*
X260977D01*
X257501Y22800D02*
X261400D01*
X262857Y123800D02*
X267138Y119519D01*
X264800Y124357D02*
X268438Y120719D01*
X264800Y124357D02*
Y124800D01*
X267138Y119519D02*
X270659D01*
X270840Y119700D01*
X292487D01*
X268438Y120719D02*
X270162D01*
X270343Y120900D01*
X292984D01*
X292487Y119700D02*
X300774Y111413D01*
X292984Y120900D02*
X301271Y112613D01*
X315400D01*
X300774Y111413D02*
X314903D01*
X316200Y110116D01*
X315400Y112613D02*
X317400Y110613D01*
Y72500D02*
Y110613D01*
X316200Y73300D02*
Y110116D01*
X230800Y70700D02*
X244694D01*
X274500Y30700D02*
Y37753D01*
X267500Y47100D02*
Y58700D01*
X267700Y34700D02*
X271350D01*
X310700Y17800D02*
X311719Y18819D01*
X336159Y18000D02*
Y20341D01*
X335200Y21300D02*
X336159Y20341D01*
X327900Y21300D02*
X335200D01*
X308200Y19197D02*
X309903Y20900D01*
X308200Y7000D02*
Y19197D01*
X354600Y-3100D02*
X357600Y-6100D01*
X359200D01*
X247700Y53900D02*
Y61261D01*
X244694Y64266D02*
X247700Y61261D01*
X322330Y-3935D02*
X329665D01*
X337400Y3800D01*
X348600D01*
X350300Y2100D01*
Y1000D02*
Y2100D01*
Y1000D02*
X354400Y-3100D01*
X354600D01*
X269500Y21172D02*
X270300Y20372D01*
X269500Y21172D02*
Y24582D01*
X281100Y25795D02*
X281835Y26530D01*
X281100Y21000D02*
Y25795D01*
X269500Y29700D02*
X273700Y25500D01*
X274272Y20372D02*
X276835Y22935D01*
X270300Y20372D02*
X274272D01*
X276835Y22935D02*
Y26530D01*
X269150Y29350D02*
X269500Y29700D01*
X263400Y29350D02*
X269150D01*
X280500Y18200D02*
X288000D01*
X289200Y19400D01*
X292600Y16943D02*
Y18943D01*
X290062Y21481D02*
X292600Y18943D01*
X289816Y21481D02*
X290062D01*
X286835Y24462D02*
X289816Y21481D01*
X292600Y16943D02*
X298143Y11400D01*
X294335Y20530D02*
X294980D01*
X297050Y22600D01*
X300900Y19700D02*
Y24400D01*
X298770Y26530D02*
X300900Y24400D01*
X298700Y17500D02*
X300900Y19700D01*
X286835Y24462D02*
Y26530D01*
X279600Y17300D02*
X280500Y18200D01*
X279600Y9600D02*
X281835Y7365D01*
Y4530D02*
Y7365D01*
X309889Y-2289D02*
X310617D01*
X312428Y-4100D01*
X306800Y700D02*
X309464D01*
X310207Y-43D01*
X313393D01*
X315285Y1850D01*
X315800D01*
X285819Y15581D02*
X287100Y14300D01*
X282538Y15581D02*
X285819D01*
X266489Y14708D02*
X281665D01*
X282538Y15581D01*
X285143Y12300D02*
X286157D01*
X284262Y11419D02*
X285143Y12300D01*
X282538Y11419D02*
X284262D01*
X281657Y12300D02*
X282538Y11419D01*
X276250Y12300D02*
X281657D01*
X283392Y13508D02*
X283400Y13500D01*
X265992Y13508D02*
X283392D01*
X271200Y7250D02*
X276250Y12300D01*
X286238Y12219D02*
X294219D01*
X286157Y12300D02*
X286238Y12219D01*
X294219D02*
X294300Y12300D01*
X253800Y22800D02*
X255921Y24920D01*
X253700Y22900D02*
X253800Y22800D01*
X250400Y22900D02*
X253700D01*
X235700Y30200D02*
Y33100D01*
X245799Y23800D02*
X246699Y22900D01*
X241850Y23800D02*
X245799D01*
X241850D02*
Y23950D01*
X238900Y26900D02*
X241850Y23950D01*
X218081Y16119D02*
X221038D01*
X223762Y15119D02*
X225178Y16535D01*
X231329D01*
X221038Y16119D02*
X222038Y15119D01*
X218584Y13919D02*
X224259D01*
X218087Y12719D02*
X224756D01*
X217590Y11519D02*
X225253D01*
X216981Y10319D02*
X226524D01*
X229600Y7243D01*
X226670Y12935D02*
X226971D01*
X225253Y11519D02*
X226670Y12935D01*
X226172Y14135D02*
X227468D01*
X224756Y12719D02*
X226172Y14135D01*
X225675Y15335D02*
X227965D01*
X224259Y13919D02*
X225675Y15335D01*
X222038Y15119D02*
X223762D01*
X229600Y2100D02*
Y7243D01*
X245400Y30600D02*
X246799Y29201D01*
Y26700D02*
Y29201D01*
X241999Y30200D02*
X242399Y30600D01*
X245400D01*
X207092Y10192D02*
X209700Y12800D01*
X204408Y10192D02*
X207092D01*
X202908Y8992D02*
X209992D01*
X203095Y11505D02*
X204408Y10192D01*
X203095Y11505D02*
Y12883D01*
X201127Y10773D02*
X202908Y8992D01*
X201127Y10773D02*
Y12883D01*
X210490Y23710D02*
X212619Y21581D01*
Y21038D02*
Y21581D01*
X211419Y20541D02*
Y21084D01*
X210761Y21742D02*
X211419Y21084D01*
X208016Y19773D02*
X210490D01*
X205064Y12883D02*
X206700D01*
X213943Y9400D02*
X214281Y9062D01*
X248043Y-2800D02*
X257270D01*
X247962Y-2719D02*
X248043Y-2800D01*
X246238Y-2719D02*
X247962D01*
X246157Y-2800D02*
X246238Y-2719D01*
X234500Y-2800D02*
X246157D01*
X208300Y-4400D02*
Y-2509D01*
X213200Y-4500D02*
Y-900D01*
Y-4500D02*
X215700D01*
X218300Y-7100D01*
X208300Y-4400D02*
X208400Y-4500D01*
X193365Y722D02*
Y12771D01*
X189962Y-2681D02*
X193365Y722D01*
X181320Y-2681D02*
X189962D01*
X180839Y-2200D02*
X181320Y-2681D01*
X208016Y33553D02*
X208245Y33781D01*
X208016Y31584D02*
X215184D01*
X229300Y32400D02*
Y36800D01*
X219900Y41757D02*
Y41800D01*
X208016Y37490D02*
X208387Y37119D01*
X208016Y39458D02*
X214142D01*
X219703Y31800D02*
X219900D01*
X222375Y23508D02*
Y32825D01*
X221467Y22600D02*
X222375Y23508D01*
X210400Y9400D02*
X211823Y7977D01*
Y6677D02*
Y7977D01*
Y6677D02*
X212200Y6300D01*
X213300Y3300D02*
X214281Y4281D01*
Y9062D01*
X208016Y25679D02*
X211021D01*
X208016Y21742D02*
X210761D01*
X208016Y23710D02*
X210490D01*
X236800Y12900D02*
X237300Y12400D01*
X233420Y16280D02*
X236800Y12900D01*
X226971Y12935D02*
X233606Y6300D01*
X227468Y14135D02*
X234103Y7500D01*
X227965Y15335D02*
X234600Y8700D01*
X231585Y16280D02*
X233420D01*
X231329Y16535D02*
X231585Y16280D01*
X234103Y7500D02*
X240200D01*
X233606Y6300D02*
X235700D01*
X252550Y10400D02*
Y18200D01*
Y7150D02*
Y10400D01*
X243400Y10743D02*
Y15599D01*
X241100Y8700D02*
X241800Y9400D01*
X234600Y8700D02*
X241100D01*
X240200Y7500D02*
X242200Y5500D01*
X242043Y2400D02*
X244281Y4638D01*
X240699Y18300D02*
X243400Y15599D01*
X235700Y6300D02*
X237300Y4700D01*
X236800Y12900D02*
Y18400D01*
X257270Y-2800D02*
X262200Y2130D01*
X229600Y2100D02*
X234500Y-2800D01*
X237300Y2400D02*
Y4700D01*
X214243Y1000D02*
X220426D01*
X214062Y1181D02*
X214243Y1000D01*
X212338Y1181D02*
X214062D01*
X212157Y1000D02*
X212338Y1181D01*
X207547Y1000D02*
X212157D01*
X207173Y1375D02*
X207547Y1000D01*
X220426D02*
X222348Y2922D01*
X222400D01*
X207173Y1375D02*
Y6327D01*
X206628Y6872D02*
X207173Y6327D01*
X203900Y6872D02*
X206628D01*
X209352Y8352D02*
X209992Y8992D01*
X210400Y9400D01*
X209352Y4510D02*
Y8352D01*
X203800Y-428D02*
X206220D01*
X208300Y-2509D01*
X175594Y3151D02*
Y12825D01*
X166980Y13680D02*
X169136Y15836D01*
X166980Y6745D02*
Y13680D01*
Y6745D02*
X167500Y6225D01*
X169136Y15836D02*
X172583D01*
X189203Y6997D02*
Y12771D01*
Y6997D02*
X189316Y6884D01*
X189203Y12771D02*
X189316Y12883D01*
X193253D02*
X193365Y12771D01*
X191284Y9916D02*
Y12883D01*
X199658Y7400D02*
X203730Y3328D01*
X197572Y7400D02*
X199658D01*
X202054Y6872D02*
X203900D01*
X200325Y8600D02*
X202054Y6872D01*
X200100Y8600D02*
X200325D01*
X199158Y9542D02*
X200100Y8600D01*
X203730Y3328D02*
X203900D01*
X203800Y-428D02*
X203900Y-328D01*
Y3328D01*
X199158Y9542D02*
Y12883D01*
X179750Y57650D02*
X179900Y57801D01*
X176550Y57650D02*
X179750D01*
X176500Y57600D02*
X176550Y57650D01*
X168500Y43672D02*
Y47000D01*
X155400Y47009D02*
X157870Y49479D01*
X155400Y41200D02*
Y47009D01*
X177800Y8600D02*
X180328D01*
X181442Y9713D01*
Y12883D01*
X172628Y184D02*
X175594Y3151D01*
X172628Y-2040D02*
Y184D01*
X167500Y-869D02*
Y6225D01*
X166769Y-1600D02*
X167500Y-869D01*
X162000Y-1600D02*
X166769D01*
X157870Y2530D02*
X162000Y-1600D01*
X157870Y2530D02*
Y5921D01*
X155199Y8592D02*
X157870Y5921D01*
X155199Y8592D02*
Y12100D01*
X152600Y16000D02*
X155128D01*
X167600Y28100D02*
X168300Y27400D01*
Y24272D02*
Y27400D01*
X168861Y23710D02*
X172583D01*
X168300Y24272D02*
X168861Y23710D01*
X175536Y12883D02*
X175594Y12825D01*
X167800Y-8600D02*
X170928D01*
X180100Y-8000D02*
Y-2939D01*
X174472Y-8600D02*
X179500D01*
X180100Y-8000D01*
Y-2939D02*
X180839Y-2200D01*
X202377Y-2549D02*
X203800Y-3972D01*
X198510Y-2549D02*
X202377D01*
X198161Y-2200D02*
X198510Y-2549D01*
X195221Y740D02*
X198161Y-2200D01*
X195221Y740D02*
Y12883D01*
X197190Y7782D02*
Y12883D01*
Y7782D02*
X197572Y7400D01*
X248850Y20429D02*
X253956D01*
X244400D02*
X248850D01*
Y18200D02*
Y20429D01*
X238921D02*
X244400D01*
Y18300D02*
Y20429D01*
X253956D02*
X256199Y18186D01*
Y18100D02*
Y18186D01*
X235550Y23800D02*
X238921Y20429D01*
X252550Y7150D02*
X257300Y2400D01*
Y12400D02*
X259900Y15000D01*
Y18100D01*
X298143Y10993D02*
X298550Y11400D01*
X298143Y6544D02*
Y10993D01*
X298099Y6500D02*
X298143Y6544D01*
X301800Y6500D02*
X302100Y6800D01*
X304200D01*
X291900Y-2057D02*
X292838Y-1119D01*
X305062D01*
X306281Y-3584D02*
X309297Y-6600D01*
X306281Y-3584D02*
Y-2338D01*
X305062Y-1119D02*
X306281Y-2338D01*
X304200Y-3200D02*
X308800Y-7800D01*
X309297Y-6600D02*
X313642D01*
X308800Y-7800D02*
X330500D01*
X315700Y-4542D02*
Y-4372D01*
X313642Y-6600D02*
X315700Y-4542D01*
X330500Y-7800D02*
X335500Y-2800D01*
X337800D01*
X293300Y9600D02*
X293935Y8965D01*
Y3165D02*
Y8965D01*
Y3165D02*
X295382Y1718D01*
X298900D01*
X211898Y41427D02*
X212900Y42428D01*
X208016Y41427D02*
X211898D01*
X168500Y43672D02*
X168776Y43395D01*
X172583D01*
X191284Y48316D02*
Y50699D01*
X187347Y50397D02*
X190900Y53950D01*
X187347Y48316D02*
Y50397D01*
X185379Y52179D02*
X187300Y54100D01*
X185379Y48316D02*
Y52179D01*
X183410Y53910D02*
X183600Y54100D01*
X183410Y48316D02*
Y53910D01*
X179900Y54100D02*
X181442Y52558D01*
Y48316D02*
Y52558D01*
X217300Y155500D02*
Y161900D01*
Y155500D02*
X217500Y155700D01*
X249019Y113019D02*
X252700Y116700D01*
X249019Y102823D02*
X255191Y96650D01*
X249019Y102823D02*
Y113019D01*
X296981Y126881D02*
X316800Y146700D01*
X263975Y128081D02*
X294981D01*
X314750Y147850D01*
X263019Y126881D02*
X296981D01*
X288900Y9600D02*
X293300D01*
X298143Y11400D02*
X298550D01*
X256200Y133700D02*
X263019Y126881D01*
X256889Y135167D02*
X263975Y128081D01*
X261700Y123800D02*
X262857D01*
X260819Y134881D02*
Y138062D01*
X261700Y138943D02*
Y154503D01*
X260819Y138062D02*
X261700Y138943D01*
X262900Y137200D02*
Y155000D01*
X258303Y157900D02*
X261700Y154503D01*
X257780Y160120D02*
X262900Y155000D01*
X245101Y157900D02*
X258303D01*
X225367Y147667D02*
X227100Y149400D01*
X220987Y147667D02*
X225367D01*
X298900Y1718D02*
X302918D01*
X308200Y7000D01*
X309400Y6503D02*
Y12485D01*
X308900Y6003D02*
X309400Y6503D01*
X308900Y2900D02*
Y6003D01*
X244609Y135167D02*
X256889D01*
X220987Y140167D02*
X221054Y140100D01*
X224900D01*
X211800Y167400D02*
X217300Y161900D01*
X211750Y167400D02*
X211800D01*
X192200Y169250D02*
X194850Y166600D01*
X192200Y169250D02*
Y174500D01*
X194850Y166600D02*
X197200Y168950D01*
Y174500D01*
X216600Y136100D02*
X218167Y137667D01*
X220987D01*
X241267D02*
X244609D01*
X240100Y136500D02*
X241267Y137667D01*
X240100Y135300D02*
Y136500D01*
Y135300D02*
X241724Y133676D01*
X246950D01*
X246974Y133700D01*
X256200D01*
X316800Y146700D02*
Y200100D01*
X314401Y202499D02*
X316800Y200100D01*
X314401Y202499D02*
Y205300D01*
X314750Y147850D02*
Y195600D01*
X304100Y190100D02*
X309700D01*
X304100Y200100D02*
X309700D01*
X218400Y96511D02*
Y100300D01*
X264481Y90043D02*
Y93781D01*
X241946Y121846D02*
X242200Y122100D01*
X241946Y116600D02*
Y121846D01*
X265250Y117400D02*
X267900D01*
X304539Y102200D02*
X310642D01*
X255900Y119850D02*
Y123300D01*
X261550Y113321D02*
X262870Y112000D01*
X261550Y113321D02*
Y117400D01*
X260849Y116700D02*
X261550Y117400D01*
X252700Y116700D02*
X260849D01*
X255191Y96650D02*
X255300D01*
Y86111D02*
X256911Y84500D01*
X255300Y86111D02*
Y92950D01*
X248400Y91600D02*
Y95600D01*
X231212Y97612D02*
X233700D01*
X225100Y84400D02*
X228650D01*
X215300Y70501D02*
Y73200D01*
X220800Y68000D02*
Y76860D01*
X219600Y66800D02*
X220800Y68000D01*
X215300Y66800D02*
X219600D01*
X215300Y62150D02*
Y66800D01*
X219472Y60000D02*
X225800D01*
X217922Y58450D02*
X219472Y60000D01*
X215300Y58450D02*
X217922D01*
X230800Y62300D02*
Y70700D01*
Y55600D02*
Y62300D01*
X228100D02*
X230800D01*
X225800Y60000D02*
X228100Y62300D01*
X225800Y55600D02*
Y60000D01*
X227600Y70700D02*
X230800D01*
Y76860D01*
X225800Y72500D02*
X227600Y70700D01*
X225800Y72500D02*
Y76860D01*
X242200Y58228D02*
X244728D01*
X242200Y61772D02*
X244694Y64266D01*
Y70700D01*
X256505Y65438D02*
X259700Y62243D01*
X256505Y65438D02*
Y70700D01*
X261800Y74300D02*
X265100D01*
X261800Y71700D02*
Y74300D01*
X260800Y70700D02*
X261800Y71700D01*
X256505Y70700D02*
X260800D01*
X259700Y58700D02*
X263200D01*
X273300Y60300D02*
X288600D01*
X270100Y57100D02*
X273300Y60300D01*
X270100Y52300D02*
Y57100D01*
X267500Y58700D02*
X272900Y64100D01*
X277200D01*
X280100Y52300D02*
X288474D01*
X288600Y48489D02*
Y52426D01*
X288474Y52300D02*
X288600Y52426D01*
X277200Y64100D02*
X282000Y68900D01*
X280100Y70800D02*
X282000Y68900D01*
X280100Y70800D02*
Y74300D01*
X274500Y30700D02*
X276835Y28365D01*
Y26530D02*
Y28365D01*
X270300Y16828D02*
X272828D01*
X275854Y3550D02*
X276835Y4530D01*
X271200Y3550D02*
X275854D01*
X276835Y4530D02*
X276900Y4465D01*
Y-2300D02*
Y4465D01*
X291900Y-5600D02*
X294400D01*
X322165Y-4100D02*
X322330Y-3935D01*
X315972Y-4100D02*
X322165D01*
X315700Y-4372D02*
X315972Y-4100D01*
X291835Y4530D02*
X291900Y4465D01*
Y-2057D02*
Y4465D01*
X281835Y-235D02*
Y4530D01*
Y-235D02*
X282984Y-1384D01*
Y-3470D02*
Y-1384D01*
Y-6084D02*
Y-3470D01*
Y-6084D02*
X285418Y-8518D01*
X298900D01*
X286835Y7535D02*
X288900Y9600D01*
X286835Y4530D02*
Y7535D01*
X286685Y-3470D02*
X286835Y-3320D01*
Y4530D01*
X277650Y34700D02*
X280600D01*
X281835Y33465D01*
Y26530D02*
Y33465D01*
X304850Y11400D02*
X304999Y11550D01*
Y17500D01*
X291835Y26530D02*
X298770D01*
X291650Y26715D02*
X291835Y26530D01*
X291650Y26715D02*
Y33700D01*
X315650Y5700D02*
X315800Y5550D01*
X311800Y5700D02*
X315650D01*
X312050Y8750D02*
Y11500D01*
X308900Y2900D02*
X309801Y1999D01*
X311800D01*
X328365Y6065D02*
X331041Y8741D01*
X322330Y6065D02*
X328365D01*
X315750Y14951D02*
X315999Y15200D01*
X315750Y11500D02*
Y14951D01*
Y11500D02*
X316185Y11065D01*
X322330D01*
X315800Y5550D02*
X316315Y6065D01*
X322330D01*
X315800Y1850D02*
X316584Y1065D01*
X322330D01*
X338935Y-3935D02*
X344330D01*
X337800Y-2800D02*
X338935Y-3935D01*
X337800Y-2800D02*
Y-300D01*
X339165Y1065D01*
X344330D01*
Y-3935D02*
X344465Y-3800D01*
X326472Y174523D02*
Y183023D01*
Y174523D02*
X326972Y174023D01*
X190900Y57650D02*
X192750D01*
X191284Y50699D02*
X193600Y53015D01*
Y56300D01*
X193253Y48316D02*
Y50853D01*
X157870Y59321D02*
X173700D01*
X232500Y34400D02*
X232800Y34100D01*
Y38300D01*
X236501D02*
X236900D01*
X242982Y44318D02*
X245532D01*
X240600Y46700D02*
X242982Y44318D01*
X254100Y53800D02*
X259900D01*
X244281Y4638D02*
Y9862D01*
X243400Y10743D02*
X244281Y9862D01*
X308200Y65300D02*
X316200Y73300D01*
X309600Y64700D02*
X317400Y72500D01*
X249000Y116600D02*
X251100Y118700D01*
X241000Y111100D02*
Y115654D01*
X241946Y116600D01*
X235511D02*
X241946D01*
X249000D01*
X310642Y102200D02*
Y107042D01*
Y97142D02*
Y102200D01*
X279481Y90043D02*
Y93619D01*
X272081Y89987D02*
Y93381D01*
X248400Y95600D02*
Y99900D01*
Y95600D02*
X251900D01*
X227100Y149400D02*
Y158900D01*
X228321Y160120D01*
X257780D01*
X252159Y48959D02*
X252216D01*
X244000Y47600D02*
X244200Y47400D01*
X250600D01*
X252159Y48959D01*
X218300Y-7100D02*
X219443Y-8243D01*
X383621Y11980D02*
X384600Y11000D01*
X390200D01*
X391400Y12200D01*
Y14400D01*
X383621Y11980D02*
Y15061D01*
X391300Y14400D02*
Y21311D01*
X376700Y24300D02*
Y24500D01*
X404400Y30050D02*
X404650D01*
X399580Y-6521D02*
Y-2261D01*
X400143Y-8900D02*
X402139Y-6904D01*
X391200Y-8900D02*
X400143D01*
X402139Y-6904D02*
Y-2261D01*
X397021Y-6780D02*
Y-2261D01*
X372400Y-7400D02*
Y-7000D01*
X368400Y-7400D02*
X368699D01*
X366400Y-5400D02*
X368400Y-7400D01*
X388739Y-2261D02*
Y1161D01*
X388300Y1600D02*
X388739Y1161D01*
X366444Y5398D02*
X366802D01*
X379061Y-2261D02*
X381061D01*
X378900Y-2100D02*
X379061Y-2261D01*
X383621Y-5579D02*
Y-2261D01*
X382700Y-6500D02*
X383621Y-5579D01*
X396100Y-7700D02*
X397021Y-6780D01*
X386179Y-5920D02*
Y-2261D01*
X372400Y-7400D02*
X373981Y-8981D01*
X392062D01*
X386179Y-5920D02*
X386459Y-6200D01*
X390600D01*
X391600Y-5200D01*
Y-2500D01*
X391839Y-2261D02*
X394461D01*
X391600Y-2500D02*
X391839Y-2261D01*
X376201Y3499D02*
X378100Y1600D01*
X368701Y3499D02*
X376201D01*
X366802Y5398D02*
X368701Y3499D01*
X378100Y1600D02*
X388300D01*
X376000Y-301D02*
X377799Y-2100D01*
X378900D01*
X368100Y-2700D02*
X372400Y-7000D01*
X366506Y-2700D02*
X368100D01*
X362100Y-2500D02*
X362300Y-2700D01*
X359600Y7600D02*
X367500Y-300D01*
X362100Y-2500D02*
Y9D01*
X356000Y6109D02*
X362100Y9D01*
X360800Y11043D02*
X366444Y5398D01*
X358400Y7103D02*
X367003Y-1500D01*
X357200Y6606D02*
X366506Y-2700D01*
X356000Y6109D02*
Y18743D01*
X350743Y24000D02*
X356000Y18743D01*
X329700Y24000D02*
X350743D01*
X329103Y27097D02*
X343009D01*
X343806Y26300D01*
X343506Y28297D02*
X344303Y27500D01*
X328900Y30243D02*
Y30400D01*
X330846Y28297D02*
X343506D01*
X328900Y30243D02*
X330846Y28297D01*
X330981Y31122D02*
X332606Y29497D01*
X330981Y32381D02*
X331100Y32500D01*
X330981Y31122D02*
Y32381D01*
X331962Y34581D02*
X335743Y30800D01*
X330238Y34581D02*
X331962D01*
X330157Y34500D02*
X330238Y34581D01*
X314457Y34600D02*
X314838Y34981D01*
X318019D02*
X318400Y34600D01*
X314838Y34981D02*
X318019D01*
X267500Y37800D02*
X270100D01*
X270500Y38200D01*
X240700Y43400D02*
X242861Y41239D01*
X235700Y33100D02*
X237300Y34700D01*
X259500Y45328D02*
X261728D01*
X325181Y29196D02*
X325622Y28755D01*
X328500Y34600D02*
X328700D01*
X318300Y30400D02*
Y31300D01*
X318400Y34600D02*
Y35500D01*
X317457Y37500D02*
X317538Y37581D01*
X319262D01*
X319162Y33381D02*
X320381Y32162D01*
X320900Y33340D02*
X321581Y32659D01*
X322100Y33837D02*
X322781Y33156D01*
X323300Y34334D02*
X323981Y33653D01*
X325019Y34312D02*
X325181Y34150D01*
Y29196D02*
Y34150D01*
X320381Y30438D02*
Y32162D01*
X319121Y29178D02*
X320381Y30438D01*
X315700Y32900D02*
X316181Y33381D01*
X319162D01*
X323300Y34334D02*
Y36937D01*
X322100Y33837D02*
Y36440D01*
X319262Y37581D02*
X320900Y35943D01*
Y33340D02*
Y35943D01*
X321581Y26381D02*
Y32659D01*
X318700Y23500D02*
X321581Y26381D01*
X245532Y41759D02*
X248566D01*
X250400Y43593D01*
Y47200D01*
X252152Y42110D02*
X252175Y42087D01*
X256441D01*
X256701Y41828D01*
X259900Y53800D02*
X261620Y52079D01*
Y49279D02*
Y52079D01*
Y49279D02*
X266200Y44700D01*
X278340Y43500D02*
X278409Y43569D01*
X277843Y44700D02*
X277912Y44769D01*
X256701Y41828D02*
X259134D01*
X253800Y39200D02*
X253881Y39281D01*
X258284D01*
X245532Y39200D02*
X248500D01*
X242131Y33068D02*
X245875D01*
X249593Y29350D01*
X236900Y38300D02*
X242131Y33068D01*
X249593Y29350D02*
X263400D01*
X243238Y34269D02*
X246372D01*
X238543Y38964D02*
X243238Y34269D01*
X199158Y48316D02*
Y49958D01*
X200300Y51100D01*
X203100D01*
X238500Y44500D02*
X239600Y43400D01*
X240700D01*
X238543Y38964D02*
Y40558D01*
X237638Y42419D02*
X238884D01*
X236419Y43638D02*
X237638Y42419D01*
X236419Y43638D02*
Y45362D01*
X236700Y45643D01*
X237881Y41219D02*
X238543Y40558D01*
X234000Y41700D02*
X234481Y41219D01*
X237881D01*
X236700Y45643D02*
Y48100D01*
X240400Y38803D02*
Y40903D01*
X238884Y42419D02*
X240400Y40903D01*
X259100Y34800D02*
X259950Y35650D01*
X263400D01*
X242861Y38040D02*
Y41239D01*
Y38040D02*
X243781Y37119D01*
X240400Y38803D02*
X243735Y35469D01*
X245875D01*
X246372Y34269D02*
X246822Y34719D01*
X254848D02*
X257010Y36881D01*
X246822Y34719D02*
X254848D01*
X245875Y35469D02*
X246325Y35919D01*
X256513Y38081D02*
X258781D01*
X263620Y42020D02*
X265100Y43500D01*
X259134Y41828D02*
X259326Y42020D01*
X263620D01*
X258284Y39281D02*
X259823Y40820D01*
X258781Y38081D02*
X260320Y39620D01*
X259520Y36881D02*
X261059Y38420D01*
X265177D01*
X260320Y39620D02*
X264680D01*
X259823Y40820D02*
X264182D01*
X257010Y36881D02*
X259520D01*
X265177Y38420D02*
X266638Y39881D01*
X264680Y39620D02*
X266141Y41081D01*
X264182Y40820D02*
X265644Y42281D01*
X270500Y38200D02*
X274947D01*
X278409Y43569D02*
X297720D01*
X277912Y44769D02*
X298217D01*
X305485Y37500D01*
X317457D01*
X322781Y24638D02*
Y33156D01*
X323981Y24141D02*
Y33653D01*
X325622Y24085D02*
Y28755D01*
X309400Y12485D02*
X314235Y17321D01*
X318858D01*
X325622Y24085D01*
X311719Y18819D02*
X318659D01*
X323981Y24141D01*
X318162Y20019D02*
X322781Y24638D01*
X314938Y20019D02*
X318162D01*
X314057Y20900D02*
X314938Y20019D01*
X309903Y20900D02*
X314057D01*
X296300Y38200D02*
X312400Y22100D01*
X315800D01*
X309100Y27097D02*
X318300D01*
X308716Y29178D02*
X319121D01*
X309191Y30400D02*
X318300D01*
X306688Y34600D02*
X314457D01*
X296316Y39881D02*
X309100Y27097D01*
X296813Y41081D02*
X308716Y29178D01*
X297310Y42281D02*
X309191Y30400D01*
X297720Y43569D02*
X306688Y34600D01*
X274947Y38200D02*
X296300D01*
X308200Y50340D02*
X322100Y36440D01*
X308200Y50340D02*
Y65300D01*
X309600Y50637D02*
Y64700D01*
Y50637D02*
X323300Y36937D01*
X328600Y34500D02*
X330157D01*
X328500Y34600D02*
X328600Y34500D01*
X340400Y19672D02*
X342228Y21500D01*
X342800D01*
X343272D02*
X345200Y19572D01*
X342800Y21500D02*
X343272D01*
X349700Y19650D02*
X352150D01*
X352300Y19500D01*
X335359Y17700D02*
X335759Y17300D01*
X336859D01*
X339228D01*
X340400Y16128D01*
Y12300D02*
Y16128D01*
Y12300D02*
X341635Y11065D01*
X344330D01*
X266638Y39881D02*
X296316D01*
X266141Y41081D02*
X296813D01*
X265644Y42281D02*
X297310D01*
X265100Y43500D02*
X278340D01*
X266200Y44700D02*
X277843D01*
X325019Y34312D02*
Y62619D01*
X326600Y64200D01*
Y72000D01*
X-5500Y90900D02*
Y93328D01*
X-9000Y89000D02*
X-4700Y84700D01*
X21200Y71400D02*
X31000D01*
X20200Y70400D02*
X21200Y71400D01*
X20200Y63300D02*
Y70400D01*
X21200Y71400D02*
X21500Y71700D01*
Y79400D01*
X284130Y114630D02*
X284743Y115243D01*
X290900D01*
X9250Y84700D02*
Y87350D01*
X10900Y89000D01*
Y104670D01*
X21500Y94700D02*
X22050Y94150D01*
X25900D01*
X30900Y99699D02*
Y104670D01*
Y99699D02*
X33200Y97399D01*
X-9000Y96300D02*
X-8028Y97272D01*
X-9000Y89000D02*
Y96300D01*
X-8028Y97272D02*
X-5728D01*
X-5500D01*
X-5728D02*
X-4100Y98900D01*
X203100Y51100D02*
X204200Y52200D01*
X208387Y37119D02*
X215262D01*
X215184Y31584D02*
X215300Y31700D01*
X208245Y33781D02*
X217722D01*
X219703Y31800D01*
X208016Y35521D02*
X217679D01*
X218925Y34275D01*
X220925D01*
X222375Y32825D01*
X215262Y37119D02*
X219900Y41757D01*
X214142Y39458D02*
X214400Y39200D01*
X212900Y42428D02*
X215428D01*
X212619Y21038D02*
X213838Y19819D01*
X208016Y17805D02*
X210761D01*
X213838Y19819D02*
X214381D01*
X211419Y20541D02*
X213341Y18619D01*
X208016Y15836D02*
X211032D01*
X211850Y15019D01*
X212281D01*
X216981Y10319D01*
X210761Y17805D02*
X212347Y16219D01*
X212890D01*
X217590Y11519D01*
X210490Y19773D02*
X212844Y17419D01*
X213387D01*
X218087Y12719D01*
X213341Y18619D02*
X213884D01*
X218584Y13919D01*
X214381Y19819D02*
X218081Y16119D01*
X211021Y25679D02*
X216225Y20475D01*
Y20278D02*
Y20475D01*
Y20278D02*
X218378Y18125D01*
X221975D02*
X222900Y17200D01*
X218378Y18125D02*
X221975D01*
X214100Y26200D02*
X217425Y22875D01*
Y20775D02*
Y22875D01*
Y20775D02*
X218875Y19325D01*
X220925D01*
X222375Y20775D01*
Y21800D01*
X224900D01*
X21600Y166450D02*
Y171994D01*
Y172388D01*
X331041Y8741D02*
Y18000D01*
X336159D02*
X336859Y17300D01*
X282000Y68900D02*
X287094D01*
X276900Y-6001D02*
X277699Y-6800D01*
X280600D01*
X267550Y-6950D02*
X271400D01*
X267500Y-6900D02*
X267550Y-6950D01*
X264980Y-650D02*
X271400D01*
X262200Y2130D02*
X264980Y-650D01*
X284130Y112000D02*
Y114630D01*
X278900Y112000D02*
X284130D01*
X294700Y68900D02*
X298905D01*
X261728Y45328D02*
X262000Y45600D01*
X401121Y26520D02*
X404650Y30050D01*
X376700Y24500D02*
X379800Y21400D01*
X214349Y135167D02*
X220987D01*
X207387Y107301D02*
Y113387D01*
X207190Y95490D02*
Y100690D01*
X179750Y57650D02*
X190900D01*
X231645Y21800D02*
X231922Y21522D01*
X219443Y-8243D02*
X222400D01*
X208400Y-4500D02*
X213200D01*
D61*
X213080Y50380D02*
Y79180D01*
X212020Y49321D02*
X213080Y50380D01*
X212020Y49321D02*
X212024Y49317D01*
Y48984D02*
Y49317D01*
X381400Y139766D02*
Y147972D01*
X364852Y133400D02*
X375034D01*
X397021Y16361D02*
Y18826D01*
X394847Y21000D02*
X397021Y18826D01*
X393716Y21000D02*
X394847D01*
X404800Y18300D02*
X405553Y19053D01*
X405610Y18996D01*
X407087D01*
X409842Y21752D01*
X397593Y90507D02*
X407893Y100807D01*
X414628D02*
X418600Y104779D01*
X407893Y100807D02*
X414628D01*
X404800Y-7500D02*
Y18300D01*
X233950Y145879D02*
X237161Y142667D01*
X233950Y145879D02*
Y158000D01*
X226133Y142667D02*
X227800Y141000D01*
X220987Y142667D02*
X226133D01*
X237161D02*
X244609D01*
X213400Y89600D02*
Y108500D01*
X227800Y123700D02*
Y141000D01*
X213400Y108500D02*
X215900Y111000D01*
X219500D01*
X226000D02*
X229000D01*
X230000Y112000D01*
Y121500D01*
X227800Y123700D02*
X230000Y121500D01*
X252883Y171260D02*
X256643Y167500D01*
X238788Y171260D02*
X252883D01*
X238595Y171453D02*
X238788Y171260D01*
X235320Y171453D02*
X238595D01*
X233159Y169291D02*
X235320Y171453D01*
X222441Y169291D02*
X233159D01*
X220900Y167750D02*
X222441Y169291D01*
X220900Y160350D02*
Y167750D01*
X217867Y142667D02*
X220987D01*
X216800Y141600D02*
X217867Y142667D01*
X216800Y140400D02*
Y141600D01*
X215800Y139400D02*
X216800Y140400D01*
X213750Y139400D02*
X215800D01*
X319700Y15200D02*
X322300D01*
X485111Y84600D02*
X494771D01*
X498835Y77000D02*
X514371D01*
X496031Y79804D02*
X498835Y77000D01*
X490315Y79804D02*
X496031D01*
X522224Y93975D02*
Y98041D01*
X521971Y93723D02*
X522224Y93975D01*
X521971Y90419D02*
Y93723D01*
Y90419D02*
X522224Y90167D01*
X484446Y59804D02*
X486356Y61714D01*
Y67703D01*
X486165Y67895D02*
X486356Y67703D01*
X486165Y67895D02*
Y71523D01*
X488596Y73954D01*
X520254Y100010D02*
X522224Y98041D01*
X514909Y100010D02*
X520254D01*
X514371Y77000D02*
X518271Y80900D01*
X480315Y59804D02*
X484446D01*
X510397Y104522D02*
X514909Y100010D01*
X480315Y79804D02*
X485111Y84600D01*
X57433Y35433D02*
X79130Y57130D01*
X-8110Y35433D02*
X57433D01*
X79130Y57130D02*
Y59321D01*
X-7874Y45276D02*
Y50174D01*
X-8500Y50800D02*
X-7874Y50174D01*
X-15052Y50800D02*
X-8500D01*
X-15590Y51339D02*
X-15052Y50800D01*
X-25591Y41339D02*
X-11352Y27100D01*
X47300D01*
X64250Y10150D01*
X-15590Y39213D02*
X-11811Y35433D01*
X-15590Y39213D02*
Y41339D01*
X64250Y10150D02*
X70900D01*
X212592Y28492D02*
X213400Y29300D01*
X211265Y28492D02*
X212592D01*
X210420Y27647D02*
X211265Y28492D01*
X208016Y27647D02*
X210420D01*
X213080Y79180D02*
X213600Y79700D01*
X213400Y89600D02*
X213600Y89400D01*
X248267Y153810D02*
X249857Y155400D01*
X248267Y152667D02*
Y153810D01*
X244609Y152667D02*
X248267D01*
X242033Y150167D02*
X244609D01*
X241000Y151200D02*
X242033Y150167D01*
X241000Y151200D02*
Y157500D01*
X241400Y157900D01*
X241300Y158000D02*
X241400Y157900D01*
X237650Y158000D02*
X241300D01*
X244609Y145167D02*
X252035D01*
X310550Y195100D02*
X311050Y195600D01*
X304100Y195100D02*
X310550D01*
X310500Y205100D02*
X310700Y205300D01*
X304100Y205100D02*
X310500D01*
X285350Y33700D02*
X286835Y32216D01*
Y26530D02*
Y32216D01*
X381400Y147972D02*
X381500Y148072D01*
X363300Y132300D02*
X363752D01*
X364852Y133400D01*
X402019Y-10281D02*
X404800Y-7500D01*
X366797Y-10281D02*
X402019D01*
X345200Y16028D02*
X349621D01*
X349700Y15950D01*
X350553Y6065D02*
X354600Y2018D01*
X349500Y6065D02*
X349700Y6265D01*
Y15950D01*
X349500Y6065D02*
X350553D01*
X344330D02*
X349500D01*
X326481Y29734D02*
X326922Y29294D01*
X326319Y34851D02*
X326481Y34689D01*
Y29734D02*
Y34689D01*
X326922Y23406D02*
Y29294D01*
X322300Y15200D02*
X322658Y15558D01*
Y19142D01*
X326922Y23406D01*
X326319Y54419D02*
X340300Y68400D01*
X326319Y34851D02*
Y54419D01*
X340300Y68400D02*
Y72400D01*
X334542Y104400D02*
X344543Y94400D01*
X348300D01*
X358721Y94000D02*
X367200D01*
X370200Y97000D01*
Y109000D01*
X379942Y96157D02*
Y109700D01*
Y96157D02*
X386300Y89800D01*
X494846Y73954D02*
X498900Y69900D01*
X488596Y73954D02*
X494846D01*
X499019Y61100D02*
X521500D01*
X522224Y72703D02*
Y90167D01*
X522190Y72670D02*
X522224Y72703D01*
X521500Y61100D02*
X523590Y63190D01*
X498900Y69664D02*
X499052Y69512D01*
X520220D01*
X522190Y71481D01*
Y72670D01*
X490315Y69804D02*
X499019Y61100D01*
X523590Y63190D02*
Y72000D01*
X510363Y111737D02*
Y112244D01*
Y111737D02*
X513900Y108200D01*
X522400D02*
X523600Y107000D01*
X513900Y108200D02*
X522400D01*
X523600Y104871D02*
X523624Y104847D01*
X523600Y104700D02*
Y104871D01*
Y107000D01*
X523624Y72000D02*
Y104847D01*
X354549Y1967D02*
X366797Y-10281D01*
X375034Y133400D02*
X381400Y139766D01*
D62*
X270248Y190105D02*
X272100Y191957D01*
Y192058D01*
X270248Y172300D02*
Y190105D01*
X290700Y159200D02*
Y198500D01*
X283800Y152300D02*
X290700Y159200D01*
X289100Y200100D02*
X290700Y198500D01*
X270248Y152300D02*
X283800D01*
X282100Y200100D02*
X289100D01*
X261842Y162300D02*
X270248D01*
X257000Y167142D02*
X261842Y162300D01*
X503622Y46498D02*
X505002D01*
X490315Y59804D02*
X503622Y46498D01*
X494771Y84600D02*
X498471Y80900D01*
X494271Y85100D02*
X494771Y84600D01*
X498471Y80900D02*
X510397D01*
X480315Y69804D02*
Y79804D01*
X472471Y87649D02*
X480315Y79804D01*
X472471Y87649D02*
Y105400D01*
X476875Y109804D01*
X480315D01*
Y119804D01*
X490315D02*
X494275D01*
X480315D02*
X490315D01*
X494275D02*
X501371Y126900D01*
Y139600D01*
X480315Y89804D02*
X490315D01*
Y99804D01*
X480315D02*
X490315D01*
X494075D01*
X499271Y105000D01*
Y116000D01*
X511371Y128100D01*
Y139600D01*
X510397Y80900D02*
Y88774D01*
X490315Y109804D02*
Y119804D01*
X257000Y167142D02*
Y199000D01*
D63*
X390404Y29232D02*
D03*
D64*
X427116Y170374D02*
D03*
D65*
X379850Y-2100D02*
D03*
D66*
X247700Y39200D02*
D03*
D67*
X261350Y45250D02*
D03*
D68*
X33650Y144100D02*
D03*
D69*
X10921Y167646D02*
D03*
D70*
X6069Y191041D02*
D03*
D71*
X33037Y175200D02*
D03*
D72*
X33833Y217520D02*
D03*
D73*
X205858Y12800D02*
D03*
D74*
X401100Y194350D02*
D03*
D75*
X196310Y108913D02*
D03*
D76*
X190250Y88500D02*
D03*
D77*
X518237Y112244D02*
D03*
X510363D02*
D03*
X518237Y104370D02*
D03*
X510363D02*
D03*
X518237Y96496D02*
D03*
X510363D02*
D03*
X518237Y88622D02*
D03*
X510363D02*
D03*
X518237Y80748D02*
D03*
X510363D02*
D03*
X518237Y72874D02*
D03*
X510363D02*
D03*
X518237Y65000D02*
D03*
X510363D02*
D03*
X518237Y57126D02*
D03*
X510363D02*
D03*
D78*
X490499Y99700D02*
D03*
X480499D02*
D03*
X490499Y89700D02*
D03*
X480499D02*
D03*
X490499Y79700D02*
D03*
X480499D02*
D03*
Y69700D02*
D03*
X490499D02*
D03*
X480499Y59700D02*
D03*
X490499D02*
D03*
X480499Y119700D02*
D03*
X490499D02*
D03*
X480499Y109700D02*
D03*
X490499D02*
D03*
X-15590Y81339D02*
D03*
X-25591D02*
D03*
X-15590Y71339D02*
D03*
X-25591D02*
D03*
X-15590Y61339D02*
D03*
X-25591D02*
D03*
Y51339D02*
D03*
X-15590D02*
D03*
X-25591Y41339D02*
D03*
X-15590D02*
D03*
X-25591Y101339D02*
D03*
X-15590D02*
D03*
X-25591Y91339D02*
D03*
X-15590D02*
D03*
D79*
X511900Y149500D02*
D03*
X501900D02*
D03*
X250600Y127300D02*
D03*
X210500Y123300D02*
D03*
D80*
X501900Y139500D02*
D03*
X511900D02*
D03*
X335300Y216300D02*
D03*
X295300D02*
D03*
X400000D02*
D03*
X360000D02*
D03*
D81*
X401300Y118200D02*
D03*
X380421Y139079D02*
D03*
X347900Y190272D02*
D03*
Y219800D02*
D03*
X381201Y180118D02*
D03*
Y150591D02*
D03*
X324700Y104400D02*
D03*
X256643Y167500D02*
D03*
X236958D02*
D03*
X386700Y89600D02*
D03*
X418600Y104779D02*
D03*
X272100Y192058D02*
D03*
Y211742D02*
D03*
X370100Y109700D02*
D03*
X348879Y94000D02*
D03*
D82*
X334542Y104400D02*
D03*
X396543Y89600D02*
D03*
X379942Y109700D02*
D03*
X358721Y94000D02*
D03*
D83*
X237300Y2400D02*
D03*
X247300D02*
D03*
X257300D02*
D03*
Y12400D02*
D03*
X247300D02*
D03*
X237300D02*
D03*
D84*
X505002Y46498D02*
D03*
D85*
X157870Y59321D02*
D03*
Y49479D02*
D03*
X79130D02*
D03*
Y59321D02*
D03*
X157970Y76279D02*
D03*
Y86121D02*
D03*
X79230D02*
D03*
Y76279D02*
D03*
X157870Y5921D02*
D03*
Y-3921D02*
D03*
X79130D02*
D03*
Y5921D02*
D03*
X157970Y22779D02*
D03*
Y32621D02*
D03*
X79230D02*
D03*
Y22779D02*
D03*
D86*
X391800Y45800D02*
D03*
Y55800D02*
D03*
X377100Y55700D02*
D03*
Y45700D02*
D03*
D87*
X391800Y35800D02*
D03*
X377100Y35700D02*
D03*
D88*
X418600Y114621D02*
D03*
D89*
X224900Y21800D02*
D03*
X219900D02*
D03*
X224900Y26800D02*
D03*
X219900D02*
D03*
X224900Y31800D02*
D03*
X219900D02*
D03*
X224900Y36800D02*
D03*
X219900D02*
D03*
X224900Y41800D02*
D03*
X219900D02*
D03*
D90*
X38138Y199423D02*
D03*
Y14173D02*
D03*
X370079D02*
D03*
Y199423D02*
D03*
D91*
X201500Y58800D02*
D03*
X203400Y56400D02*
D03*
X204600Y52200D02*
D03*
X208400Y53600D02*
D03*
X212024Y48984D02*
D03*
X193600Y56300D02*
D03*
X64200Y71400D02*
D03*
X392400Y29200D02*
D03*
X389900Y29300D02*
D03*
X400512Y26478D02*
D03*
X396063Y26772D02*
D03*
X380913Y29200D02*
D03*
X383582Y28938D02*
D03*
X426083Y169390D02*
D03*
X428642Y168799D02*
D03*
X409842Y21752D02*
D03*
X410039Y64173D02*
D03*
X425800Y171900D02*
D03*
X211500Y114500D02*
D03*
X214000Y113500D02*
D03*
X210000Y102500D02*
D03*
X203000Y103000D02*
D03*
X207500Y113500D02*
D03*
X219500Y111000D02*
D03*
X226000D02*
D03*
X34500Y178200D02*
D03*
X33300Y175600D02*
D03*
Y145800D02*
D03*
X33400Y141900D02*
D03*
X33100Y149000D02*
D03*
X33400Y139000D02*
D03*
X37500Y135500D02*
D03*
X452756Y78740D02*
D03*
Y82677D02*
D03*
Y86614D02*
D03*
X440945Y78300D02*
D03*
Y82677D02*
D03*
Y86614D02*
D03*
X-23622Y181102D02*
D03*
X10600Y167700D02*
D03*
X12800Y166000D02*
D03*
X6400Y192913D02*
D03*
X4300Y191000D02*
D03*
X31496Y218504D02*
D03*
X35006Y173231D02*
D03*
X31069Y177169D02*
D03*
X37402Y217800D02*
D03*
X30350Y215950D02*
D03*
X31527Y173231D02*
D03*
X224410Y131890D02*
D03*
X218504Y129921D02*
D03*
X222441D02*
D03*
X220472Y131890D02*
D03*
X230315Y165354D02*
D03*
X216535Y131890D02*
D03*
X39200Y113200D02*
D03*
X-23340Y171260D02*
D03*
X-27559Y165541D02*
D03*
X8200Y166000D02*
D03*
X6400Y189000D02*
D03*
X34000Y217800D02*
D03*
X-20974Y126600D02*
D03*
X25900Y119800D02*
D03*
X18900Y147000D02*
D03*
X1000Y154500D02*
D03*
X-7027Y154736D02*
D03*
X8700Y132300D02*
D03*
X-6484Y118499D02*
D03*
X8699Y91101D02*
D03*
X-600Y87900D02*
D03*
X46700Y97200D02*
D03*
X39400Y87600D02*
D03*
X33200Y87700D02*
D03*
X17600Y88600D02*
D03*
X62600Y91600D02*
D03*
X66100Y40200D02*
D03*
X59776Y41476D02*
D03*
X126Y52974D02*
D03*
X268400Y112100D02*
D03*
X269300Y122800D02*
D03*
X383800Y25200D02*
D03*
X267700Y34700D02*
D03*
X315800Y22100D02*
D03*
X359200Y-6100D02*
D03*
X362300Y-2700D02*
D03*
X329700Y24000D02*
D03*
X318700Y23500D02*
D03*
X247700Y53900D02*
D03*
X352300Y19500D02*
D03*
X342800Y21500D02*
D03*
X328900Y30400D02*
D03*
X329103Y27097D02*
D03*
X318300D02*
D03*
X281100Y21000D02*
D03*
X273700Y25500D02*
D03*
X289200Y19400D02*
D03*
X294335Y20530D02*
D03*
X279600Y17300D02*
D03*
Y9600D02*
D03*
X309889Y-2289D02*
D03*
X306800Y700D02*
D03*
X283400Y13500D02*
D03*
X232100Y21700D02*
D03*
X238900Y26900D02*
D03*
X222900Y17200D02*
D03*
X227300Y6600D02*
D03*
X209700Y12800D02*
D03*
X206700Y12883D02*
D03*
X247100Y-4800D02*
D03*
X218300Y-7100D02*
D03*
X189500Y-6000D02*
D03*
X189100Y-600D02*
D03*
X232375Y34275D02*
D03*
X212200Y6300D02*
D03*
X252550Y10400D02*
D03*
X241800Y9400D02*
D03*
X242200Y5500D02*
D03*
X213200Y-900D02*
D03*
X213300Y3300D02*
D03*
X168400Y18000D02*
D03*
X162000Y19000D02*
D03*
X189316Y6884D02*
D03*
X191284Y9916D02*
D03*
X176500Y57600D02*
D03*
X168500Y47000D02*
D03*
X177800Y8600D02*
D03*
X171600Y2100D02*
D03*
X177865Y5135D02*
D03*
X152600Y16000D02*
D03*
X167600Y28100D02*
D03*
X167800Y-8600D02*
D03*
X287100Y14300D02*
D03*
X304200Y6800D02*
D03*
Y-3200D02*
D03*
X217300Y155500D02*
D03*
X246400Y107800D02*
D03*
X251100Y107500D02*
D03*
X213600Y79700D02*
D03*
Y89400D02*
D03*
X294300Y12300D02*
D03*
X310700Y17800D02*
D03*
X264800Y124800D02*
D03*
X260819Y134881D02*
D03*
X262900Y137200D02*
D03*
X261700Y123800D02*
D03*
X176200Y82600D02*
D03*
X178000Y79300D02*
D03*
X164800Y64800D02*
D03*
X170600Y64300D02*
D03*
X258050Y136950D02*
D03*
X257999Y150399D02*
D03*
X256100Y155400D02*
D03*
X224900Y140100D02*
D03*
X216600Y136100D02*
D03*
X309700Y190100D02*
D03*
Y200100D02*
D03*
X191400Y89100D02*
D03*
X197099Y107301D02*
D03*
X218400Y100300D02*
D03*
X207190Y100690D02*
D03*
X264481Y93781D02*
D03*
X242200Y122100D02*
D03*
X267900Y117400D02*
D03*
X304539Y102200D02*
D03*
X278900Y112000D02*
D03*
X255900Y123300D02*
D03*
X248400Y91600D02*
D03*
X231212Y97612D02*
D03*
X225100Y84400D02*
D03*
X215300Y73200D02*
D03*
X244728Y58228D02*
D03*
X294700Y68900D02*
D03*
X263200Y58700D02*
D03*
X272828Y16828D02*
D03*
X294400Y-5600D02*
D03*
X312050Y8750D02*
D03*
X240600Y46700D02*
D03*
X244000Y47600D02*
D03*
X254100Y53800D02*
D03*
X401100Y195800D02*
D03*
Y192900D02*
D03*
X251100Y118700D02*
D03*
X233268Y115157D02*
D03*
X241000Y111100D02*
D03*
X310642Y97142D02*
D03*
Y107042D02*
D03*
X272081Y93381D02*
D03*
X279481Y93619D02*
D03*
X248400Y99900D02*
D03*
X251900Y95600D02*
D03*
X197200Y110400D02*
D03*
X188667Y87726D02*
D03*
X392900Y24900D02*
D03*
X376700Y24300D02*
D03*
X398130Y25394D02*
D03*
X399580Y-6521D02*
D03*
X366400Y-5400D02*
D03*
X378900Y-2100D02*
D03*
X391600Y-2500D02*
D03*
X330400Y38900D02*
D03*
X331100Y32500D02*
D03*
X315700Y32900D02*
D03*
X267500Y37800D02*
D03*
X262200Y45200D02*
D03*
X237300Y34700D02*
D03*
X328700Y34600D02*
D03*
X318300Y31300D02*
D03*
X318400Y35500D02*
D03*
X322600Y40700D02*
D03*
X267500Y47100D02*
D03*
X274200D02*
D03*
X245400Y30600D02*
D03*
X201600Y53200D02*
D03*
X234000Y41700D02*
D03*
X238500Y44500D02*
D03*
X236700Y48100D02*
D03*
X259100Y34800D02*
D03*
X248700Y39200D02*
D03*
X327900Y21300D02*
D03*
X383800Y64600D02*
D03*
X-5500Y90900D02*
D03*
X341700Y78600D02*
D03*
X361900Y72800D02*
D03*
X31000Y71400D02*
D03*
X20200Y63300D02*
D03*
X21500Y79400D02*
D03*
X436500Y86600D02*
D03*
X215300Y31700D02*
D03*
X214400Y39200D02*
D03*
X215428Y42428D02*
D03*
X213400Y29300D02*
D03*
X214100Y26200D02*
D03*
X280600Y-6800D02*
D03*
X267500Y-6900D02*
D03*
M02*
